<?xml version="1.0" standalone="no"?>
<!DOCTYPE svg PUBLIC "-//W3C//DTD SVG 1.1//EN" "http://www.w3.org/Graphics/SVG/1.1/DTD/svg11.dtd" >
<svg xmlns="http://www.w3.org/2000/svg">
<metadata>Generated by IcoMoon</metadata>
<defs>
<font id="dsofonts" horiz-adv-x="1024">
<font-face units-per-em="1024" ascent="960" descent="-64" />
<missing-glyph horiz-adv-x="1024" />
<glyph unicode="&#x20;" glyph-name="dsologo" d="M438 942.4c-166.4-28-299.2-124.8-373.2-272.4-36.4-72-50.8-135.2-50.8-222 0-44.4 2-71.6 7.2-96 22-103.2 64.8-182.4 138.4-256.4 74-73.6 153.2-116.4 256.4-138.4 47.2-10 144.8-10 192 0 103.2 22 182.4 64.8 256.4 138.4 73.6 74 116.4 153.2 138.4 256.4 10 47.2 10 144.8 0 192-22 103.2-64.8 182.4-138.4 256.4-73.6 73.2-153.6 116.4-254.4 137.6-42.8 9.2-130.8 11.2-172 4.4zM743.6 792c20.8-4.4 38.8-8.8 39.6-10 1.2-1.2-8.8-2-22-2-48.4 0-102.8-24.8-143.6-65.6-13.2-13.6-28.4-33.2-34-44.4l-9.6-20-2.4-184c-2.4-205.6-2.4-205.2-31.6-248.8-23.6-35.6-54.8-56-102-66.4-61.6-13.6-117.2-11.6-188 6.8l-20 5.2 34 2c75.6 4.8 152 57.6 175.6 121.2 8 21.2 8.4 30 8.4 187.6 0 95.6 1.6 174.4 4 186.8 6 32 24.8 68.8 46 89.6 48.4 48.4 141.2 64.4 245.6 42zM791.2 688.4c0.8-61.2 0.4-65.2-6-62-4 1.6-14.4 3.6-23.6 4.8-13.2 1.2-18.4-0.4-28.8-8.8-14-12.4-22.4-32.8-18.4-48 1.2-5.6 8.8-15.6 16-22.4 16-14 41.6-16.4 57.2-5.6 18 12.8 20.4 27.2 20.4 118v84.4l11.2-2.8c34-8.4 76-46.8 95.6-88 22-46.4 21.6-96-0.8-144.8-26.4-58.4-84-93.6-151.6-93.6-16.4 0-37.6 2-47.2 4.4-83.2 22.8-139.2 107.2-124 188.8 16 85.2 86.4 144.8 168.8 142l30-0.8 1.2-65.6zM424 479.2c0-88.8-2-160.4-4.4-170.8-11.2-48.4-46.4-90.8-94.4-113.6-25.6-12-30-12.8-71.2-12.8s-45.6 0.8-71.2 12.8c-89.2 42.4-125.6 144-82.4 230 28.8 56.8 90 95.2 152 95.2 33.2 0 31.6 3.2 31.6-70.4v-66l-8.8 4.8c-4.4 2.4-15.6 4.4-24.8 4.4-13.6-0.4-18.8-2.8-29.2-14.4-33.2-36-1.2-88 46-76 18.4 4.8 29.6 20.4 33.2 46.4 1.6 11.6 3.2 80 3.2 152.4l0.4 130.8h120v-152.8z" />
<glyph unicode="&#xe900;" glyph-name="cabinet" d="M160 0v768l133.344 128h405.344l133.312-128v-768h-672zM800 256v480h-608v-704h608v224zM768 512h-544v192h544v-192zM576 640h-160v-32h160v32zM768 288h-544v192h544v-192zM576 416h-160v-32h160v32zM768 64h-544v192h544v-192zM576 192h-160v-32h160v32z" />
<glyph unicode="&#xe901;" glyph-name="calendar" d="M864-32h-704c-35.328 0-64 28.672-64 64v704c0 35.36 28.672 64 64 64h64v-32c0-53.024 42.976-96 96-96 52.992 0 96 42.976 96 96v32h192v-32c0-53.024 43.008-96 96-96s96 42.976 96 96v32h64c35.328 0 64-28.64 64-64v-704c0-35.328-28.672-64-64-64zM864 576h-704v-544h704v544zM320 416h-96v96h96v-96zM320 256h-96v96h96v-96zM320 96h-96v96h96v-96zM480 416h-96v96h96v-96zM480 256h-96v96h96v-96zM480 96h-96v96h96v-96zM640 416h-96v96h96v-96zM640 256h-96v96h96v-96zM640 96h-96v96h96v-96zM800 416h-96v96h96v-96zM800 256h-96v96h96v-96zM800 96h-96v96h96v-96zM703.008 704c-34.816 0-63.008 28.224-63.008 63.008v65.984c0 34.816 28.192 63.008 63.008 63.008s63.008-28.192 63.008-63.008v-65.984c0-34.784-28.192-63.008-63.008-63.008zM319.008 704c-34.816 0-63.008 28.224-63.008 63.008v65.984c0 34.816 28.192 63.008 63.008 63.008s63.008-28.192 63.008-63.008v-65.984c0-34.784-28.224-63.008-63.008-63.008z" />
<glyph unicode="&#xe902;" glyph-name="suitcase" d="M864 32h-736c-35.36 0-64 28.672-64 64v384c0 0 167.072-85.92 320-121.088v-38.912c0-17.696 14.304-32 32-32h160c17.664 0 32 14.304 32 32v38.912c152.896 35.168 320 121.088 320 121.088v-384c0-35.328-28.672-64-64-64zM544 416c17.664 0 32-14.304 32-32v-32c0-17.696-14.336-32-32-32h-96c-17.696 0-32 14.304-32 32v32c0 17.696 14.304 32 32 32h96zM608 416c0 17.696-14.336 32-32 32h-160c-17.696 0-32-14.304-32-32v-28.672c-152.928 36.224-320 124.672-320 124.672v128c0 35.328 28.64 64 64 64h192v64c0 35.328 28.672 64 64 64h224c35.328 0 64-28.672 64-64v-64h192c35.328 0 64-28.672 64-64v-128c0 0-167.104-88.448-320-124.672v28.672zM608 736c0 17.696-14.336 32-32 32h-160c-17.696 0-32-14.304-32-32 0-17.664 0-32 0-32h224c0 0 0 14.336 0 32z" />
<glyph unicode="&#xe903;" glyph-name="pictures" horiz-adv-x="1040" d="M851.328 13.216l-83.968 23.040-0.192 232.256 80.32-22.592 115.808 432.288-586.624 157.184-38.656-144.192h-66.176l59.616 222.464 710.176-190.272-190.304-710.176zM737.248-64h-737.248v735.264h737.248v-735.264zM673.312 607.328h-609.376v-447.52h609.376v447.52zM251.168 288.224l73.056 118.144 73.056-73.632 100.448 151.264 105.056-260.288h-465.792l59.36 118.72 54.816-54.208zM207.488 413.248c-26.496 0-47.968 21.44-47.968 47.936s21.472 47.936 47.968 47.936 47.936-21.44 47.936-47.936-21.44-47.936-47.936-47.936z" />
<glyph unicode="&#xe904;" glyph-name="sitemap" d="M768 96h-96c-17.696 0-32 14.304-32 32v64c0 17.696 14.304 32 32 32h64v192h-224v-192h32c17.664 0 32-14.304 32-32v-64c0-17.696-14.336-32-32-32h-96c-17.696 0-32 14.304-32 32v64c0 17.696 14.304 32 32 32h32v192h-224v-192h64c17.664 0 32-14.304 32-32v-64c0-17.696-14.336-32-32-32h-96c-17.696 0-32 14.304-32 32v64c0 17.696 14.304 32 32 32v224h256v224h-32c-17.696 0-32 14.336-32 32v64c0 17.664 14.304 32 32 32h96c17.664 0 32-14.336 32-32v-64c0-17.664-14.336-32-32-32h-32v-224h256v-224c17.664 0 32-14.304 32-32v-64c0-17.696-14.336-32-32-32z" />
<glyph unicode="&#xe905;" glyph-name="pencil" d="M864 960c88.364 0 160-71.634 160-160 0-36.020-11.91-69.258-32-96l-64-64-224 224 64 64c26.742 20.090 59.978 32 96 32zM64 224l-64-288 288 64 592 592-224 224-592-592zM715.578 596.422l-448-448-55.156 55.156 448 448 55.156-55.156z" />
<glyph unicode="&#xe906;" glyph-name="pencil2" d="M384 320l128 64 448 448-64 64-448-448-64-128zM289.3 92.902c-31.632 66.728-65.666 100.762-132.396 132.394l99.096 272.792 128 77.912 384 384h-192l-384-384-192-640 640 192 384 384v192l-384-384-77.912-128z" />
<glyph unicode="&#xe907;" glyph-name="chart" d="M543.936 481.856c0 0 3.072 383.552 0 383.552 220.672 0 383.552-162.88 383.552-383.552 0-1.216-383.552 0-383.552 0zM895.552 403.136c0-229.472-186.048-415.52-415.52-415.52-229.504 0-415.52 186.048-415.52 415.52 0 229.504 186.016 415.52 415.52 415.52 10.784 0 21.376-0.768 31.968-1.6v-367.168h381.056c1.6-14.72 2.496-31.616 2.496-46.752zM861.6 415.936h-381.568v370.752c-211.84 0-383.552-171.744-383.552-383.584s171.712-383.52 383.552-383.52 383.552 171.68 383.552 383.52c0 41.28-1.984 12.832-1.984 12.832z" />
<glyph unicode="&#xe908;" glyph-name="pen" d="M1018.17 668.11l-286.058 286.058c-9.334 9.334-21.644 7.234-27.356-4.666l-38.354-79.904 267.198-267.198 79.904 38.354c11.9 5.712 14 18.022 4.666 27.356zM615.384 824.616l-263.384-21.95c-17.5-2.166-32.080-5.898-37.090-28.752-0.006-0.024-0.012-0.042-0.018-0.066-71.422-343.070-314.892-677.848-314.892-677.848l57.374-57.374 271.986 271.99c-5.996 12.53-9.36 26.564-9.36 41.384 0 53.020 42.98 96 96 96s96-42.98 96-96-42.98-96-96-96c-14.82 0-28.852 3.364-41.384 9.36l-271.988-271.986 57.372-57.374c0 0 334.778 243.47 677.848 314.892 0.024 0.006 0.042 0.012 0.066 0.018 22.854 5.010 26.586 19.59 28.752 37.090l21.95 263.384-273.232 273.232z" />
<glyph unicode="&#xe909;" glyph-name="chart2" d="M127.584 832h-31.584v-768h832v30.816l-799.872 1.6-0.544 735.584zM352 800c0 17.696-14.336 32-32 32h-96c-17.696 0-32-14.304-32-32v-640h160v640zM544 608c0 17.696-14.336 32-32 32h-96c-17.696 0-32-14.304-32-32v-448h160v448zM736 416c0 17.696-14.336 32-32 32h-96c-17.696 0-32-14.304-32-32v-256h160v256zM896 256h-96c-17.696 0-32-14.304-32-32v-64h160v64c0 17.696-14.336 32-32 32z" />
<glyph unicode="&#xe90a;" glyph-name="chart3" d="M127.584 832h-31.584v-768h832v30.816l-799.872 1.6-0.544 735.584zM544 800c0 17.696-14.336 32-32 32h-96c-17.696 0-32-14.304-32-32v-640h160v640zM352 608c0 17.664-14.336 32-32 32h-96c-17.696 0-32-14.336-32-32v-448h160v448zM736 416c0 17.696-14.336 32-32 32h-96c-17.696 0-32-14.304-32-32v-256h160v256zM896 256h-96c-17.696 0-32-14.304-32-32v-64h160v64c0 17.696-14.336 32-32 32z" />
<glyph unicode="&#xe90b;" glyph-name="chart4" d="M864 287.008h-640v-160h640c17.664 0 32 14.304 32 32v96c0 17.664-14.336 32-32 32zM704 351.008v96c0 17.664-14.336 32-32 32h-448v-160h448c17.664 0 32 14.304 32 32zM512 543.008v96c0 17.664-14.336 32-32 32h-256v-160h256c17.664 0 32 14.336 32 32zM320 735.008v96c0 17.696-14.336 32-32 32h-64v-160h64c17.664 0 32 14.336 32 32zM160 863.008h-32v-830.016h768v32h-736v798.016z" />
<glyph unicode="&#xe90c;" glyph-name="phone" d="M832-64h-672c-35.36 0-64 28.672-64 64v768c0 35.36 28.64 64 64 64v-768c0-35.328 28.672-64 64-64h128c35.36 0 64 28.672 64 64v768h416c35.36 0 64-28.672 64-64v-768c0-35.328-28.64-64-64-64zM672 32h64v64h-64v-64zM672 128h64v64h-64v-64zM672 224h64v64h-64v-64zM672 320h64v64h-64v-64zM576 32h64v64h-64v-64zM576 128h64v64h-64v-64zM576 224h64v64h-64v-64zM576 320h64v64h-64v-64zM832 736c0 17.696-14.304 32-32 32h-288c-17.664 0-32-14.304-32-32v-128c0-17.664 14.336-32 32-32h288c17.696 0 32 14.336 32 32v128zM832 384h-64v-64h64v64zM832 288h-64v-64h64v64zM832 192h-64v-64h64v64zM832 96h-64v-64h64v64zM352 32h-128c-17.664 0-32 14.304-32 32v800c0 17.696 14.336 32 32 32h62.016v64h33.984v-64h32c17.664 0 32-14.304 32-32v-800c0-17.696-14.336-32-32-32z" />
<glyph unicode="&#xe90d;" glyph-name="open" d="M896-32h-768c-53.024 0-96 43.008-96 96v448c0 53.024 42.976 96 96 96h768c52.992 0 96-42.976 96-96v-448c0-52.992-43.008-96-96-96zM256 382.688c-53.024 0-96-50.144-96-112 0-61.888 42.976-112 96-112 52.992 0 96 50.112 96 112 0 61.856-43.008 112-96 112zM504.96 355.264c-3.68 7.584-8.608 13.504-14.656 17.696-6.080 4.224-13.632 7.072-22.624 8.576-6.4 1.184-15.68 1.76-27.84 1.76h-57.056v-221.248h32.256v64.512h26.944c25.92 0 43.776 11.392 53.728 22.176 9.888 10.816 14.848 57.984 14.848 73.568-0.032 9.024-1.888 25.376-5.6 32.96zM672.768 193.76h-97.856v64.256h94.592v29.76h-94.592v65.76h97.6v29.76h-127.84v-221.248h128.096v31.712zM862.528 383.264h-29.248v-169.92l-96.384 169.92h-32.864v-221.248h31.264v161.952l96.384-161.952h30.88v221.248zM442.336 258.24h-27.296v95.264h26.816c10.976 0 18.496-0.544 22.592-1.632 6.304-1.76 11.424-5.312 15.296-10.752s5.824-12 5.824-19.616c0-10.56-3.296-48.704-9.888-54.528s-17.696-8.736-33.344-8.736zM256 188c-35.328 0-64 35.808-64 80s28.672 80 64 80 64-35.808 64-80-28.672-80-64-80zM800 608l-234.304 174.4c-11.008-8.864-24.8-14.4-40-14.4-21.184 0-39.808 10.4-51.424 26.272l-250.272-186.272h-32l271.776 208.576c-1.216 4.96-2.080 10.080-2.080 15.424 0 35.328 28.672 64 64 64 35.36 0 64-28.672 64-64 0-11.488-3.296-22.144-8.608-31.488l250.912-192.512h-32z" />
<glyph unicode="&#xe90e;" glyph-name="sale" d="M896-32h-768c-53.024 0-96 43.008-96 96v448c0 53.024 42.976 96 96 96h64l271.776 208.576c-1.216 4.96-2.048 10.080-2.048 15.424 0 35.328 28.672 64 64 64s63.968-28.672 63.968-64c0-11.488-3.264-22.144-8.608-31.488l250.912-192.512h64c52.992 0 96-42.976 96-96v-448c0-52.992-43.008-96-96-96zM546.272 173.344h128.992v24.256h-101.76v182.016h-27.264v-206.272zM361.696 173.344l22.592 62.496h86.656l23.744-62.496h31.104l-84.096 206.24h-29.568l-79.296-206.24h28.864zM170.944 355.392c-5.888-9.088-8.832-18.848-8.832-29.248 0-9.504 2.4-18.048 7.232-25.728s12.16-14.048 21.984-19.264c7.552-4.032 20.768-8.32 39.648-12.864s31.072-7.904 36.608-10.048c8.608-3.328 14.784-7.328 18.592-12.16s5.728-10.432 5.728-16.896c0-6.336-1.952-12.256-5.824-17.664s-9.792-9.664-17.76-12.768c-7.936-3.136-17.088-4.672-27.456-4.672-11.68 0-22.176 2.016-31.52 6.144-9.376 4.064-16.256 9.44-20.672 16.096s-7.296 15.168-8.512 25.504l-25.76-2.24c0.384-13.792 4.16-26.112 11.328-37.024 7.168-10.944 17.024-19.136 29.6-24.576 12.608-5.44 28.192-8.16 46.816-8.16 14.656 0 27.872 2.688 39.616 8.096 11.744 5.376 20.736 12.864 27.008 22.592 6.272 9.696 9.408 20 9.408 30.976 0 11.040-2.88 20.768-8.608 29.248-5.728 8.512-14.592 15.488-26.624 20.992-8.288 3.744-23.456 8.128-45.536 13.12-22.112 5.024-35.776 9.952-40.992 14.752-5.344 4.736-8 10.848-8 18.24 0 8.576 3.776 15.84 11.296 21.888s19.488 9.088 35.936 9.088c15.808 0 27.744-3.328 35.808-9.92 8.096-6.624 12.8-16.416 14.208-29.344l26.24 1.984c-0.48 12.096-3.84 22.912-10.080 32.448-6.272 9.536-15.232 16.768-26.88 21.696s-25.088 7.36-40.352 7.36c-13.856 0-26.432-2.336-37.76-7.040-11.392-4.672-20-11.52-25.888-20.608zM565.696 782.4c-11.008-8.864-24.768-14.4-39.968-14.4-21.184 0-39.808 10.4-51.456 26.272l-250.272-186.272h576l-234.304 174.4zM861.952 197.6h-126.496v70.24h113.984v24.256h-113.984v63.264h121.76v24.256h-148.992v-206.24h153.76v24.224zM426.048 358.080c3.328-11.296 8.192-25.6 14.624-42.976l21.728-57.024h-70.368l22.88 60.384c4.704 13.024 8.416 26.24 11.136 39.616z" />
<glyph unicode="&#xe90f;" glyph-name="radio" d="M990.944 580.608c-5.728 124.608-55.616 248.928-152.576 344.096-97.12 95.296-224.032 144.288-351.2 149.76l-7.008 70.816c147.104-8.8 290.304-65.952 403.040-176.544 112.96-110.88 171.872-251.168 180.672-395.84l-72.928 7.712zM895.2 565.312l-70.208 9.696c1.152 86.464-31.168 174.016-98.4 240-65.92 64.672-152.928 96.448-239.328 96.64l-12.672 69.472c107.008-2.592 213.92-43.264 295.584-123.36 83.072-81.664 123.84-185.504 125.024-292.448zM725.824 569.472l-62.304 17.248c7.328 44.096-16.192 82.624-50.848 116.672-31.456 30.88-73.728 44.736-114.848 41.664l-24.096 69.12c65.728 4.256 132.864-18.272 183.104-67.584 49.536-48.64 72.544-113.472 68.992-177.12zM593.792 607.712c0-44.832-37.024-81.184-82.72-81.184-15.776 0-30.368 4.576-42.912 12.096l-35.552-34.944 257.28-249.792c-6.304-7.424-12.896-14.88-20.512-22.336-144.256-141.568-378.144-141.568-522.432 0-144.288 141.632-144.288 371.168 0 512.736 6.592 6.528 13.184 12 19.776 17.536l242.336-235.296 34.784 34.144c-9.696 13.28-15.52 29.44-15.52 47.040 0 44.832 37.056 81.184 82.752 81.184s82.72-36.32 82.72-81.184zM278.080 123.264c-3.040 0 84.064-187.264 84.064-187.264h-362.144l124.928 289.312c0 0 37.92-55.264 153.152-102.048z" />
<glyph unicode="&#xe910;" glyph-name="satellite" horiz-adv-x="1064" d="M0 292.384l356.384-356.384c0 0 85.088 201.952-34.656 321.696-118.432 118.432-321.728 34.688-321.728 34.688zM956 264.064l-180.992-180.992 22.624-22.624 180.992 180.992-22.624 22.624zM1046.496 218.816l-203.616 203.68c-24.992 24.928-65.568 24.928-90.496 0l-17.856-17.856-49.92 49.92 89.504 89.504c24.992 24.992 22.176 68.352-2.816 93.344l-110.304 110.304c-24.992 24.992-65.504 24.992-90.496 0l-81.376-78.528-42.88 42.88 2.912 2.88c24.992 24.992 24.992 65.536 0 90.528l-203.648 203.68c-24.992 24.992-65.504 24.992-90.528 0l-135.744-135.776c-24.992-24.992-24.992-65.536 0-90.528l203.648-203.648c24.992-24.992 65.504-24.992 90.528 0l44.512 44.512 44.096-44.48-81.888-81.888c-24.992-24.992-15.552-164.096-15.552-164.096l55.136-55.136c0 0 139.072-9.44 164.064 15.552l70.848 70.816 49.92-49.92-27.968-27.968c-24.992-24.992-24.992-65.504 0-90.496l203.68-203.616c24.992-24.992 65.504-24.992 90.496 0l135.744 135.744c24.992 25.088 24.992 65.6 0 90.592zM41.856 850.752l135.776 135.776c12.48 12.512 32.736 12.512 45.248 0l-181.024-181.024c-12.512 12.48-12.512 32.768 0 45.248zM64.48 782.88l181.024 181.024 22.624-22.624-181.024-181.024-22.624 22.624zM109.728 737.632l181.024 181.024 22.624-22.656-180.992-180.992-22.656 22.624zM155.008 692.352l180.992 181.024 22.656-22.624-181.024-181.024-22.624 22.624zM200.256 647.104l181.024 181.024 22.624-22.624-181.024-181.024-22.624 22.624zM290.752 601.856c-12.48-12.512-32.736-12.512-45.248 0l181.024 181.024c12.512-12.512 12.512-32.768 0-45.248l-135.776-135.776zM381.056 432.064l-16.96 16.992 233.92 233.92 16.992-16.96-233.952-233.952zM639.2 264.064l135.808 135.808c12.512 12.448 32.736 12.448 45.248 0l-181.056-181.056c-12.512 12.512-12.512 32.736 0 45.248zM1023.872 150.944l-135.744-135.744c-12.512-12.512-32.736-12.512-45.248 0l-135.776 135.776 180.992 180.992-22.624 22.624-181.056-180.992-22.624 22.624 181.056 181.056 180.992-181.056c12.544-12.544 12.544-32.8 0.032-45.28zM1001.248 218.816l-180.992-180.992 22.624-22.624 180.992 180.992-22.624 22.624zM910.752 309.312l-180.992-180.992 22.624-22.624 180.992 180.992-22.624 22.624z" />
<glyph unicode="&#xe911;" glyph-name="medal" d="M511.968 527.008c-145.376 0-263.264-117.888-263.264-263.264s117.888-263.264 263.264-263.264c145.408 0 263.264 117.888 263.264 263.264s-117.856 263.264-263.264 263.264zM511.968 38.944c-123.008 0-222.752 99.744-222.752 222.816 0 123.008 99.744 222.72 222.752 222.72 123.072 0 222.752-99.712 222.752-222.72 0-123.072-99.68-222.816-222.752-222.816zM644.352 737.6l90.368 157.92h-445.504l91.744-157.92h263.392zM691.616 468.768l161.344 265.536-108.192 156.608-203.2-357.28c89.152-7.456 150.048-64.864 150.048-64.864zM481.696 535.616l-202.496 355.296-108.16-156.608 156.608-270.208c-0.032 0 56.832 58.624 154.048 71.52zM475.776 322.432c-12.256-9.568-23.552-16-33.984-19.424v-36.192c19.808 6.496 37.024 16.576 51.616 30.24v-150.752h40v209.568h-32.448c-4.544-12.672-12.928-23.872-25.184-33.44z" />
<glyph unicode="&#xe912;" glyph-name="locked" d="M128-32v512h96v160c0 141.376 114.592 256 256 256h32c141.376 0 256-114.624 256-256v-160h96v-512h-736zM471.808 230.816l-23.808-166.816h96l-23.84 166.816c23.328 9.536 39.84 32.416 39.84 59.2 0 35.328-28.672 64-64 64-35.36 0-64-28.672-64-64 0-26.784 16.48-49.664 39.808-59.2zM672 624c0 97.216-78.816 176-176 176-97.216 0-176-78.784-176-176v-144h352v144z" />
<glyph unicode="&#xe913;" glyph-name="archive" d="M418.24 793.536l-185.472 49.696c-17.056 4.576-34.592-5.568-39.168-22.624l-190.496-710.912c-4.576-17.088 5.568-34.624 22.656-39.232l185.44-49.696c17.056-4.576 34.624 5.568 39.2 22.624l190.496 710.944c4.544 17.056-5.568 34.624-22.656 39.2zM248.96 161.824c-13.728-51.232-66.336-81.6-117.568-67.872s-81.6 66.336-67.872 117.568 66.336 81.632 117.568 67.872c51.232-13.728 81.6-66.368 67.872-117.568zM285.728 298.976l-185.44 49.696 99.36 370.912 185.472-49.728-99.392-370.88zM606.016 224c-26.528 0-48-21.504-48-48s21.472-48 48-48c26.496 0 48 21.504 48 48s-21.504 48-48 48zM345.952 647.264l-123.68 33.12-8.256-30.912 123.648-33.12 8.288 30.912zM321.056 554.528l8.32 30.912-123.648 33.12-8.288-30.912 123.616-33.12zM168.16 231.104c-25.6 6.88-51.936-8.352-58.784-33.952-6.88-25.632 8.32-51.936 33.952-58.784 25.6-6.88 51.936 8.32 58.784 33.952 6.848 25.6-8.352 51.904-33.952 58.784zM958.016 672h-128v-32h128v32zM958.016 544h-128v-32h128v32zM958.016 608h-128v-32h128v32zM894.016 224c-26.528 0-48-21.504-48-48s21.472-48 48-48c26.496 0 48 21.504 48 48s-21.504 48-48 48zM990.016 832h-192c-17.696 0-32-14.304-32-32v-736c0-17.664 14.304-32 32-32h192c17.664 0 32 14.336 32 32v736c0 17.696-14.368 32-32 32zM894.016 80c-53.024 0-96 43.008-96 96 0 53.024 42.976 96 96 96 52.992 0 96-42.976 96-96 0-52.992-43.008-96-96-96zM990.016 320h-192v384h192v-384zM670.016 672h-128v-32h128v32zM670.016 544h-128v-32h128v32zM702.016 832h-192c-17.696 0-32-14.304-32-32v-736c0-17.664 14.304-32 32-32h192c17.664 0 32 14.336 32 32v736c0 17.696-14.368 32-32 32zM606.016 81.984c-53.024 0-96 43.008-96 96 0 53.024 42.976 96 96 96 52.992 0 96-42.976 96-96 0-52.992-43.008-96-96-96zM702.016 320h-192v384h192v-384zM670.016 608h-128v-32h128v32zM180.864 525.856l123.616-33.12 8.32 30.912-123.648 33.12-8.288-30.912z" />
<glyph unicode="&#xe914;" glyph-name="grid" d="M256 480h224v224h-224v-224zM544 704v-224h224v224h-224zM544 192h224v224h-224v-224zM256 192h224v224h-224v-224z" />
<glyph unicode="&#xe915;" glyph-name="resize" d="M767.264 33.12v61.824h127.616v127.616h65.824v-189.44h-193.44zM894.88 769.056h-127.616v61.824h193.44v-189.44h-65.824v127.616zM97.12 641.44h-65.792v189.44h193.44v-61.824h-127.648v-127.616zM158.944 703.264h674.112v-542.496h-674.112v542.496zM224.736 222.56h542.496v418.88h-542.496v-418.88zM288.576 575.616h416.864v-287.264h-416.864v287.264zM97.12 94.944h127.616v-61.824h-193.408v189.44h65.824v-127.616z" />
<glyph unicode="&#xe916;" glyph-name="stats" d="M191.936 800h-31.584v-736h640v30.816l-607.872 1.568-0.544 703.616zM256.352 160h160v348l-160-160v-188zM448.352 160h160v316l-64-64-96 96v-348zM640.352 160h160v485.984l-160-160v-325.984zM428.384 605.856l115.84-115.2 228.736 227.584 58.688-59.008-1.408 140.768-141.28-0.736 54.944-55.104-199.744-200.32-118.048 118.496-179.936-179.328 30.048-29.184 152.16 152.032z" />
<glyph unicode="&#xe917;" glyph-name="stats2" d="M223.584 800h-31.584v-736h640v30.816l-607.872 1.6-0.544 703.584zM448 518.016l-160 160v-518.016h160v358.016zM480 540v-380h160v412l-64 64-96-96zM672 448v-288h160v288h-160zM579.808 724.128l167.744-168.288-46.944-44.48 131.296-1.408-0.608 126.752-56.672-55.008-194.752 197.6-119.84-121.184-138.144 138.048-28.064-29.152 163.936-165.376 122.048 122.496z" />
<glyph unicode="&#xe918;" glyph-name="discout" d="M993.984 448c0-68-39.264-125.664-97.6-148.544v-74.56c0-17.6-14.272-31.872-31.84-31.872h-737.056c-17.632 0-31.872 14.272-31.872 31.872v74.56c-58.368 22.88-97.6 80.544-97.6 148.544s39.264 125.664 97.632 148.544v74.56c0 17.632 14.24 31.872 31.872 31.872h737.056c17.568 0 31.84-14.24 31.84-31.872v-74.56c58.336-22.88 97.568-80.544 97.568-148.544zM382.464 448h-127.488v-31.872h127.488v31.872zM533.824 556.672c-8.992 9.888-21.344 14.816-37.024 14.816-15.584 0-27.872-4.928-36.832-14.816-8.992-9.856-13.504-25.024-13.504-45.504 0-20.576 4.512-35.776 13.504-45.664 8.96-9.856 15.392-14.784 31.328-14.784 15.36 0 33.568 4.928 42.56 14.784 8.96 9.888 13.472 25.088 13.472 45.664-0.032 20.48-4.544 35.68-13.504 45.504zM642.24 576.48l-163.52-256.704h32.384l162.72 256.704h-31.584zM693.152 429.216c-8.96 9.856-21.344 14.784-37.024 14.784-15.552 0-27.872-4.928-36.864-14.784-8.96-9.888-13.44-25.024-13.44-45.504 0-20.576 4.48-35.808 13.44-45.664 8.992-9.888 21.44-14.816 37.376-14.816 15.36 0 27.552 4.928 36.544 14.816 8.96 9.856 13.472 25.088 13.472 45.664-0.032 20.48-4.544 35.616-13.504 45.504zM655.84 347.904c-4.608 0-8.192 1.952-10.784 5.792-3.424 5.024-5.152 15.008-5.152 29.952s1.728 24.96 5.152 30.080c2.496 3.744 6.080 5.664 10.784 5.664s8.352-1.92 10.944-5.664c3.328-5.12 4.992-15.168 4.992-30.080s-1.728-24.96-5.152-30.080c-2.496-3.776-6.080-5.664-10.784-5.664zM496.512 475.36c-4.608 0-8.192 1.952-10.784 5.824-3.424 5.024-5.152 15.008-5.152 29.952s1.728 24.96 5.152 30.080c2.496 3.744 6.080 5.632 10.784 5.632s8.32-1.888 10.944-5.632c3.328-5.12 4.992-15.168 4.992-30.080s-1.728-24.96-5.152-30.080c-2.528-3.776-6.112-5.696-10.784-5.696z" />
<glyph unicode="&#xe919;" glyph-name="edit2" d="M341.792 377.376l-70.688-181.44 178.304 73.824-107.616 107.616zM859.36 764.896l-22.624 22.624c-24.96 24.992-65.504 24.992-90.496 0l-45.248-45.248 113.12-113.152 45.248 45.248c25.024 24.992 25.024 65.536 0 90.528zM345.376 386.624l16.192 16.192 113.12-113.12 316.8 316.8-113.12 113.12 22.624 22.656-355.616-355.648zM736.128 127.872l-544.832-0.192 0.096 544.832 381.472 0.128 59.776 63.36h-473.76c-17.664 0-32-14.304-32-32v-608c0-17.696 14.336-32 32-32h608c17.696 0 32 14.304 32 32v449.856l-64.48-63.264 1.728-354.72z" />
<glyph unicode="&#xe91a;" glyph-name="profile" d="M736 607.008c0 17.696-14.336 32-32 32h-96c0 0 1.056 38.528 1.056 94.528 0 52-43.072 99.456-97.056 99.456s-95.616-45.152-95.616-99.168c0-52-0.384-94.848-0.384-94.848h-96c-17.696 0-32-14.304-32-32 0-17.664 0-62.016 0-62.016h448c0 0.032 0 44.384 0 62.048zM512 672.992c-17.696 0-32 14.336-32 32 0 17.696 14.304 32 32 32 17.664 0 32-14.304 32-32 0-17.664-14.336-32-32-32zM896 607.008l-128 1.984 0.672-99.328h-512.672v95.328l-128 1.984c-35.328 0-64-28.672-64-64v-448c0-35.328 28.672-64 64-64h768c35.328 0 64 28.672 64 64v448c0 35.36-28.672 64.032-64 64.032zM320 420.992c38.656 0 70.016-41.184 70.016-92s-31.36-92-70.016-92-70.016 41.184-70.016 92 31.36 92 70.016 92zM181.344 128.672c0 0 7.584 60.864 24.832 72.352 17.216 11.488 66.88 19.136 66.88 19.136s32.192-34.4 45.888-34.4c13.664 0 45.856 34.4 45.856 34.4s49.664-7.616 66.912-19.136c20.256-13.504 25.312-72.352 25.312-72.352h-275.68zM832 159.008h-288v32h288v-32zM832 223.008h-288v32h288v-32zM832 287.008h-288v32h288v-32zM832 351.008h-288v32h288v-32z" />
<glyph unicode="&#xe91b;" glyph-name="profile2" d="M896 160h-96v32c17.696 0 32 14.336 32 32 0 17.696-14.304 32-32 32h-64c-17.696 0-32-14.304-32-32 0-17.664 14.304-32 32-32v-32h-416v32c17.696 0 32 14.336 32 32 0 17.696-14.304 32-32 32h-64c-17.696 0-32-14.304-32-32 0-17.664 14.304-32 32-32v-32h-128c-35.328 0-64 28.672-64 64v448c0 35.328 28.672 64 64 64h768c35.328 0 64-28.672 64-64v-448c0-35.328-28.672-64-64-64zM320 646.016c-38.656 0-70.016-41.184-70.016-92s31.36-92 70.016-92 70.016 41.184 70.016 92-31.36 92-70.016 92zM431.68 425.984c-17.248 11.488-66.912 19.136-66.912 19.136s-32.192-34.4-45.856-34.4c-13.696 0-45.888 34.4-45.888 34.4s-49.664-7.616-66.88-19.136c-17.248-11.456-24.864-72.352-24.864-72.352h275.68c0.032 0.032-5.024 58.88-25.28 72.352zM832 608h-288v-32h288v32zM832 544h-288v-32h288v32zM832 480h-288v-32h288v32zM832 416h-288v-32h288v32z" />
<glyph unicode="&#xe91c;" glyph-name="retweet" d="M256.416 254.944v255.104h125.824l-188.864 220.544-192.832-220.576h126.304v-380.672h558.976l-125.536 125.568h-303.872zM897.152 351.968v382.656h-560.992l127.552-127.52h303.872v-255.136h-125.824l188.832-220.576 192.832 220.576h-126.272z" />
<glyph unicode="&#xe91d;" glyph-name="barcode" d="M761.824 339.264h-56.256v-18.752h56.256v18.752zM551.936 283.008v-18.752h56.256v-18.752h18.752v75.008h-18.752v-37.504h-56.256zM551.936 208h37.504v18.752h-37.504v-18.752zM589.44 226.752h18.752v18.752h-18.752v-18.752zM551.936 320.512h-18.752v-37.504h18.752v37.504zM448 704h-64v-320h64v320zM512 704h-32v-320h32v320zM705.568 208h56.256v18.752h-56.256v-18.752zM608.192 339.264h-56.256v-18.752h56.256v18.752zM780.576 226.752v93.76h-18.752v-93.76h18.752zM800 704h-32v-320h32v320zM398.336 245.504h-18.752v-18.752h18.752v18.752zM640 704h-64v-320h64v320zM704 704h-32v-320h32v320zM686.816 226.752h18.752v93.76h-18.752v-93.76zM225.984 208h93.76v18.752h-75.008v18.752h-18.752v-37.504zM225.984 301.76h18.752v18.752h-18.752v-18.752zM263.488 264.256h37.504v18.752h-37.504v-18.752zM417.088 283.008v-18.752h37.504v18.752h-37.504zM244.736 339.264v-18.752h56.256v18.752h-56.256zM256 704h-32v-320h32v320zM960 832h-896c-35.328 0-64-28.672-64-64v-640c0-35.328 28.672-64 64-64h896c35.328 0 64 28.672 64 64v640c0 35.328-28.672 64-64 64zM960 128h-896v640h896v-640zM192 704h-64v-512h64v512zM244.736 245.504h18.752v18.752h-18.752v-18.752zM473.344 320.512h-18.752v-37.504h18.752v37.504zM398.336 339.264v-18.752h56.256v18.752h-56.256zM319.744 283.008v37.504h-18.752v-37.504h18.752zM379.584 301.76h18.752v18.752h-18.752v-18.752zM352 704h-32v-320h32v320zM473.344 264.256h-18.752v-37.504h18.752v37.504zM454.592 208v18.752h-56.256v-18.752h56.256zM896 704h-64v-512h64v512z" />
<glyph unicode="&#xe91e;" glyph-name="badge" d="M809.824 569.76c-7.936 0-15.264 2.048-22.016 5.248l-72.672-125.92 73.152-126.752c6.016 2.432 12.512 3.904 19.36 3.904 28.8 0 52.16-23.328 52.16-52.16s-23.328-52.192-52.16-52.192c-28.832 0-52.192 21.376-52.192 50.176 0 0.48 0.288 1.312 0.288 1.312h-140.928l-75.936-129.6c14.88-9.184 25.312-24.864 25.312-43.616 0-28.8-23.36-52.192-52.192-52.192s-52.16 23.36-52.16 52.192c0 20.128 11.744 37.024 28.416 45.76l-74.72 127.456h-147.456c0-0.48 0.256-0.832 0.256-1.312 0-28.8-23.36-50.176-52.16-50.176s-52.16 23.36-52.16 52.192 23.36 52.16 52.16 52.16c8.896 0 16.896-2.816 24.256-6.752l74.816 129.6-73.92 128c-7.552-4.256-15.84-7.328-25.152-7.328-28.8 0-52.16 23.328-52.16 52.16s23.36 52.192 52.16 52.192c28.512 0 51.488-22.912 52-51.328h147.328l73.824 127.904c-16.128 8.832-27.52 25.408-27.52 45.12 0.032 28.864 23.392 52.192 52.192 52.192s52.192-23.328 52.192-52.192c0-18.336-10.048-33.728-24.448-43.040l75.072-129.984h143.008c0.512 28.416 23.488 51.328 52 51.328 28.8 0 52.192-23.36 52.192-52.192s-23.392-52.16-52.192-52.16zM512 589.312c-76.832 0-139.136-62.272-139.136-139.136s62.304-139.136 139.136-139.136c76.8 0 139.136 62.304 139.136 139.168s-62.336 139.104-139.136 139.104zM512 339.328c-61.248 0-110.88 49.632-110.88 110.88 0 61.216 49.632 110.848 110.88 110.848 61.216 0 110.88-49.632 110.88-110.848 0-61.28-49.664-110.88-110.88-110.88z" />
<glyph unicode="&#xe91f;" glyph-name="ticket" horiz-adv-x="1280" d="M1264 224h16v-32c-9.568 0-20.096 0-32 0-35.328 0-64-28.672-64-64 0-11.712 0-22.56 0-32h-1088c0 9.44 0 20.288 0 32 0 35.328-28.672 64-64 64-10.208 0-21.312 0-32 0v32h16c8.832 0 16 7.168 16 16s-7.168 16-16 16h-16v32h16c8.832 0 16 7.168 16 16s-7.168 16-16 16h-16v32h16c8.832 0 16 7.168 16 16s-7.168 16-16 16h-16v32h16c8.832 0 16 7.168 16 16s-7.168 16-16 16h-16v32h16c8.832 0 16 7.168 16 16s-7.168 16-16 16h-16v32h16c8.832 0 16 7.168 16 16s-7.168 16-16 16h-16v32h16c8.832 0 16 7.168 16 16s-7.168 16-16 16h-16v32c9.568 0 20.096 0 32 0 35.328 0 64 28.672 64 64 0 11.712 0 22.56 0 32h1088c0-9.44 0-20.288 0-32 0-35.328 28.672-64 64-64 11.904 0 22.432 0 32 0v-32h-16c-8.832 0-16-7.168-16-16s7.168-16 16-16h16v-32h-16c-8.832 0-16-7.168-16-16s7.168-16 16-16h16v-32h-16c-8.832 0-16-7.168-16-16s7.168-16 16-16h16v-32h-16c-8.832 0-16-7.168-16-16s7.168-16 16-16h16v-32h-16c-8.832 0-16-7.168-16-16s7.168-16 16-16h16v-32h-16c-8.832 0-16-7.168-16-16s7.168-16 16-16h16v-32h-16c-8.832 0-16-7.168-16-16s7.168-16 16-16zM1152 608c0 35.328-28.672 64-64 64h-896c-35.328 0-64-28.672-64-64v-352c0-35.328 28.672-64 64-64h896c35.328 0 64 28.672 64 64v352zM1088 224h-896c-17.696 0-32 14.336-32 32v352c0 17.696 14.304 32 32 32h896c17.664 0 32-14.304 32-32v-352c0-17.664-14.336-32-32-32zM364.384 512.384h-127.136v-18.88h52.864v-141.504h21.248v141.504h52.992v18.88zM408.576 512.384h-21.248v-160.384h21.248v160.384zM472.288 464.32c3.328 9.984 9.184 17.92 17.472 23.808 8.256 5.92 18.56 8.864 30.88 8.864 10.72 0 19.616-2.656 26.688-8 7.104-5.312 12.48-13.824 16.192-25.504l20.864 4.928c-4.288 14.784-11.904 26.272-22.848 34.432s-24.448 12.256-40.48 12.256c-14.144 0-27.104-3.232-38.88-9.696-11.776-6.432-20.832-15.904-27.264-28.352-6.368-12.448-9.568-27.008-9.568-43.68 0-15.328 2.848-29.664 8.512-43.008 5.632-13.376 13.888-23.552 24.672-30.592 10.848-7.040 24.896-10.56 42.176-10.56 16.672 0 30.816 4.576 42.368 13.728s19.552 22.432 24 39.872l-21.248 5.376c-2.912-13.504-8.512-23.68-16.704-30.56-8.256-6.848-18.272-10.272-30.176-10.272-9.76 0-18.848 2.528-27.232 7.552s-14.56 12.64-18.528 22.816-5.984 22.080-5.984 35.744c0.064 10.624 1.728 20.896 5.088 30.848zM747.616 512.384h-28.736l-79.616-79.36v79.36h-21.248v-160.384h21.248v55.616l26.304 25.44 57.056-81.056h28l-70.24 95.36 67.232 65.024zM894.016 370.88h-98.368v54.624h88.64v18.88h-88.64v49.12h94.624v18.88h-115.872v-160.384h119.616v18.88zM1044 512.384h-127.136v-18.88h52.864v-141.504h21.248v141.504h52.992v18.88z" />
<glyph unicode="&#xe920;" glyph-name="books" horiz-adv-x="1152" d="M224 832h-192c-17.6 0-32-14.4-32-32v-704c0-17.6 14.4-32 32-32h192c17.6 0 32 14.4 32 32v704c0 17.6-14.4 32-32 32zM192 640h-128v64h128v-64zM544 832h-192c-17.6 0-32-14.4-32-32v-704c0-17.6 14.4-32 32-32h192c17.6 0 32 14.4 32 32v704c0 17.6-14.4 32-32 32zM512 640h-128v64h128v-64zM765.088 782.52l-171.464-86.394c-15.716-7.918-22.096-27.258-14.178-42.976l287.978-571.548c7.918-15.718 27.258-22.098 42.976-14.178l171.464 86.392c15.716 7.92 22.096 27.26 14.178 42.974l-287.978 571.55c-7.92 15.718-27.26 22.1-42.976 14.18zM928 96c0-17.673-14.327-32-32-32s-32 14.327-32 32c0 17.673 14.327 32 32 32s32-14.327 32-32z" />
<glyph unicode="&#xe921;" glyph-name="ticket2" horiz-adv-x="1248" d="M1248 337.984v-177.984c0-35.328-28.672-64-64-64h-1120c-35.328 0-64 28.672-64 64v176c53.024 0 96 43.008 96 96 0 53.024-42.976 96-96 96v176c0 35.328 28.672 64 64 64h1120c35.328 0 64-28.672 64-64v-174.016c-53.024 0-96-42.976-96-96 0-52.992 42.976-96 96-96zM1088 608c0 35.328-28.672 64-64 64h-800c-35.328 0-64-28.672-64-64v-352c0-35.328 28.672-64 64-64h800c35.328 0 64 28.672 64 64v352zM1024 224h-800c-17.696 0-32 14.336-32 32v352c0 17.696 14.304 32 32 32h800c17.664 0 32-14.304 32-32v-352c0-17.664-14.336-32-32-32zM399.040 462.784l-29.024 82.56-29.024-82.56-83.648-3.52 65.728-54.528-22.688-84.736 69.632 48.832 69.6-48.832-22.656 84.704 65.696 54.528-83.616 3.552zM655.040 462.784l-29.024 82.56-29.024-82.56-83.648-3.52 65.728-54.528-22.688-84.736 69.632 48.832 69.6-48.832-22.656 84.704 65.696 54.528-83.616 3.552zM911.040 462.784l-29.024 82.56-29.024-82.56-83.616-3.52 65.696-54.528-22.688-84.736 69.632 48.832 69.6-48.832-22.656 84.704 65.696 54.528-83.616 3.552z" />
<glyph unicode="&#xe922;" glyph-name="file-text2" d="M864 960h-768c-52.8 0-96-43.2-96-96v-832c0-52.8 43.2-96 96-96h768c52.8 0 96 43.2 96 96v832c0 52.8-43.2 96-96 96zM832 64h-704v768h704v-768zM256 512h448v-64h-448zM256 384h448v-64h-448zM256 256h448v-64h-448zM256 640h448v-64h-448z" />
<glyph unicode="&#xe923;" glyph-name="profile3" d="M864 960h-768c-52.8 0-96-43.2-96-96v-832c0-52.8 43.2-96 96-96h768c52.8 0 96 43.2 96 96v832c0 52.8-43.2 96-96 96zM832 64h-704v768h704v-768zM256 384h448v-64h-448zM256 256h448v-64h-448zM320 672c0 53.019 42.981 96 96 96s96-42.981 96-96c0-53.019-42.981-96-96-96s-96 42.981-96 96zM480 576h-128c-52.8 0-96-28.8-96-64v-64h320v64c0 35.2-43.2 64-96 64z" />
<glyph unicode="&#xe924;" glyph-name="file-empty" d="M917.806 730.924c-22.212 30.292-53.174 65.7-87.178 99.704s-69.412 64.964-99.704 87.178c-51.574 37.82-76.592 42.194-90.924 42.194h-496c-44.112 0-80-35.888-80-80v-864c0-44.112 35.888-80 80-80h736c44.112 0 80 35.888 80 80v624c0 14.332-4.372 39.35-42.194 90.924zM785.374 785.374c30.7-30.7 54.8-58.398 72.58-81.374h-153.954v153.946c22.984-17.78 50.678-41.878 81.374-72.572zM896 16c0-8.672-7.328-16-16-16h-736c-8.672 0-16 7.328-16 16v864c0 8.672 7.328 16 16 16 0 0 495.956 0.002 496 0v-224c0-17.672 14.326-32 32-32h224v-624z" />
<glyph unicode="&#xe925;" glyph-name="files-empty" d="M917.806 602.924c-22.21 30.292-53.174 65.7-87.178 99.704s-69.412 64.964-99.704 87.178c-51.574 37.82-76.592 42.194-90.924 42.194h-368c-44.114 0-80-35.888-80-80v-736c0-44.112 35.886-80 80-80h608c44.112 0 80 35.888 80 80v496c0 14.332-4.372 39.35-42.194 90.924zM785.374 657.374c30.7-30.7 54.8-58.398 72.58-81.374h-153.954v153.946c22.982-17.78 50.678-41.878 81.374-72.572v0zM896 16c0-8.672-7.328-16-16-16h-608c-8.672 0-16 7.328-16 16v736c0 8.672 7.328 16 16 16 0 0 367.956 0.002 368 0v-224c0-17.672 14.324-32 32-32h224v-496zM602.924 917.804c-51.574 37.822-76.592 42.196-90.924 42.196h-368c-44.112 0-80-35.888-80-80v-736c0-38.632 27.528-70.958 64-78.39v814.39c0 8.672 7.328 16 16 16h486.876c-9.646 7.92-19.028 15.26-27.952 21.804z" />
<glyph unicode="&#xe926;" glyph-name="printer" d="M832 224h-64v64h32v64h-608v-64h32v-64h-64c-17.664 0-32 14.336-32 32v320c0 30.944 128 64 352 64 11.872 0 22.368 0 32 0 222.016 0 352-32.32 352-64v-320c0-17.664-14.304-32-32-32zM752 544c-26.496 0-48-21.504-48-48s21.504-48 48-48 48 21.504 48 48-21.504 48-48 48zM256 832c0 17.696 14.336 32 32 32h416c17.696 0 32-14.304 32-32v-160h-480v160zM736 32c0-17.664-14.304-32-32-32h-416c-17.664 0-32 14.336-32 32v288h480v-288zM672 288h-352v-32h352v32zM672 224h-352v-32h352v32zM672 160h-352v-32h352v32zM672 96h-352v-32h352v32z" />
<glyph unicode="&#xe927;" glyph-name="clipboard" d="M768-65.312h-576c-35.36 0-64 28.576-64 63.872v771.104c0 35.264 28.64 63.84 64 63.84h160v-66.528h-128c-17.664 0-32-14.272-32-31.936v-704.544c0-17.696 14.336-31.936 32-31.936h512c17.696 0 32 14.24 32 31.936v704.544c0 17.664-14.304 31.936-32 31.936h-128v66.528h160c35.328 0 64-28.608 64-63.84v-771.104c0-35.296-28.672-63.872-64-63.872zM352 575.392h352v-31.936h-352v31.936zM352 479.584h352v-31.936h-352v31.936zM352 383.744h352v-31.936h-352v31.936zM352 287.936h352v-31.936h-352v31.936zM704 64.448h-352v31.872h352v-31.872zM352 192.128h352v-31.936h-352v31.936zM256 576.032h32v-31.936h-32v31.936zM256 480.224h32v-31.936h-32v31.936zM256 384.448h32v-31.936h-32v31.936zM256 288.64h32v-31.936h-32v31.936zM288 65.056h-32v31.936h32v-31.936zM256 192.8h32v-31.936h-32v31.936zM672 733.088c17.696 0 32-14.304 32-31.968 0-17.632 0-61.856 0-61.856h-448c0 0 0 44.224 0 61.856 0 17.664 14.304 31.968 32 31.968h96c0 0 0.384 45.408 0.384 97.312 0 53.888 41.6 98.944 95.616 98.944s97.056-47.36 97.056-99.264c0-55.904-1.056-96.992-1.056-96.992h96zM480 833.504c-17.696 0-32-14.272-32-31.904 0-17.664 14.304-31.936 32-31.936s32 14.272 32 31.936c0 17.632-14.304 31.904-32 31.904z" />
<glyph unicode="&#xe928;" glyph-name="clipboard2" d="M252.896 735.264c0-17.6 0-63.776 0-63.776h448.448c0 0 0 46.176 0 63.776 0 17.632-14.24 31.904-31.872 31.904h-95.68c0 0 1.088 36.416 1.088 92.224 0 51.808-44.928 99.136-98.752 99.136s-95.296-44.992-95.296-98.848c0-51.808-0.384-92.512-0.384-92.512h-95.648c-17.632 0-31.904-14.272-31.904-31.904zM476.128 862.816c17.6 0 31.904-14.272 31.904-31.872 0-17.632-14.304-31.904-31.904-31.904s-31.904 14.272-31.904 31.904c0 17.6 14.304 31.872 31.904 31.872zM765.152 767.168v-316.832c0 0 27.52 30.368 63.744 44.928v303.776c0 35.232-30.56 63.776-65.76 63.776h-157.472v-63.776h127.552c17.632 0 31.936-14.272 31.936-31.872zM410.336-0.192h-189.344c-17.6 0-31.872 14.24-31.872 31.872v735.488c0 17.6 14.272 31.872 31.872 31.872h129.568v63.776h-161.44c-35.232 0-63.776-28.576-63.776-63.776v-799.232c0-35.232 28.544-63.808 63.776-63.808h290.592c-12.48 21.056-34.784 45.376-69.376 63.808zM765.152 31.68c0-17.632-14.304-31.872-31.904-31.872h-87.328c-16.064-21.504-31.2-42.88-45.12-63.808h162.368c35.2 0 65.76 28.576 65.76 63.808v196.128c-21.12-17.376-42.496-36.992-63.744-58.56v-105.696zM898.656 290.368c-35.936 79.872-15.36 144.736-10.24 219.616-210.528-104.8-344.032-419.296-344.032-419.296l-82.144 154.752-169.44-99.808c71.904-24.928 174.592-104.8 261.888-209.632 61.568 109.824 251.552 334.368 343.968 354.368z" />
<glyph unicode="&#xe929;" glyph-name="clipboard3" d="M832-64h-640c-35.36 0-64 28.608-64 63.872v800.448c0 35.296 28.64 63.872 64 63.872h192v-63.872h-160c-17.664 0-32-14.272-32-31.936v-736.576c0-17.632 14.336-31.936 32-31.936h576c17.696 0 32 14.304 32 31.936v736.576c0 17.664-14.304 31.936-32 31.936h-160v63.872h192c35.328 0 64-28.608 64-63.872v-800.448c0-35.264-28.672-63.872-64-63.872zM800 768.384v-736.576h-576v736.576h32v-129.76h512v129.76h32zM352 542.816h-32v-31.936h32v31.936zM352 478.944h-32v-31.936h32v31.936zM352 415.072h-32v-31.936h32v31.936zM352 351.2h-32v-31.936h32v31.936zM352 287.328h-32v-31.936h32v31.936zM352 223.424h-32v-31.936h32v31.936zM352 159.552h-32v-31.936h32v31.936zM704 542.816h-320v-31.936h320v31.936zM704 478.944h-320v-31.936h320v31.936zM704 415.072h-320v-31.936h320v31.936zM704 351.2h-320v-31.936h320v31.936zM704 287.328h-320v-31.936h320v31.936zM704 223.424h-320v-31.936h320v31.936zM704 159.552h-320v-31.936h320v31.936zM704 768.384c17.696 0 32-14.272 32-31.936 0-17.632 0-63.872 0-63.872h-448c0 0 0 46.24 0 63.872 0 17.664 14.304 31.936 32 31.936h96c0 0 0.384 40.768 0.384 92.672 0 53.888 41.6 98.944 95.616 98.944s97.056-47.36 97.056-99.296c0-55.872-1.056-92.32-1.056-92.32h96zM512 864.192c-17.696 0-32-14.272-32-31.936 0-17.632 14.304-31.936 32-31.936s32 14.304 32 31.936c0 17.664-14.304 31.936-32 31.936z" />
<glyph unicode="&#xe92a;" glyph-name="bolt" d="M1024 960l-768-512 192-128-448-384 768 384-192 128z" />
<glyph unicode="&#xe92b;" glyph-name="key-stroke" d="M704 960c-176.736 0-320-143.264-320-320 0-20 2.368-39.264 5.888-58.112l-389.888-389.888v-256h384v128h128v128h128v128l5.888 5.888c18.848-3.52 38.112-5.888 58.112-5.888 176.736 0 320 143.264 320 320s-143.264 320-320 320zM704 448c-10.016 0-20.992 1.248-34.752 3.744l-66.24 12.256-91.008-91.008v-52.992h-128v-128h-128v-128h-128v75.008l400 400-12.256 66.24c-2.56 13.76-3.744 24.768-3.744 34.752 0 105.888 86.112 192 192 192s192-86.112 192-192-86.112-192-192-192zM640 640c0 35.346 28.654 64 64 64s64-28.654 64-64c0-35.346-28.654-64-64-64s-64 28.654-64 64z" />
<glyph unicode="&#xe92c;" glyph-name="new-window" d="M1024 960h-768v-256c-92.992 0-256 0-256 0v-768h768v256h256v768zM640 64h-512v384h128v-256h384c0-57.248 0-128 0-128zM896 320h-512v384h512v-384z" />
<glyph unicode="&#xe92d;" glyph-name="paste" d="M704 832h-128v64c0 35.2-28.8 64-64 64h-128c-35.204 0-64-28.8-64-64v-64h-128v-128h512v128zM512 832h-128v63.886c0.034 0.038 0.072 0.078 0.114 0.114h127.768c0.042-0.036 0.082-0.076 0.118-0.114v-63.886zM832 640v160c0 17.6-14.4 32-32 32h-64v-64h32v-128h-192l-192-192v-256h-256v576h32v64h-64c-17.602 0-32-14.4-32-32v-640c0-17.6 14.398-32 32-32h288v-192h640v704h-192zM576 549.49v-101.49h-101.49l101.49 101.49zM960 0h-512v384h192v192h320v-576z" />
<glyph unicode="&#xe92e;" glyph-name="loop-alt2" d="M384 640h-128v64c0 35.264 28.736 64 64 64h384c35.264 0 64-28.736 64-64v-64h128v64c0 105.888-86.112 192-192 192h-384c-105.888 0-192-86.112-192-192v-64h-128l192-256 192 256zM832 512l-192-256h128v-64c0-35.264-28.736-64-64-64h-384c-35.264 0-64 28.736-64 64v64h-128v-64c0-105.888 86.112-192 192-192h384c105.888 0 192 86.112 192 192v64h128l-192 256z" />
<glyph unicode="&#xe92f;" glyph-name="image2" d="M256 192v256l128 128 128-128 256 256 256-256v-256zM128 64v896l-128-128v-896h896l128 128z" />
<glyph unicode="&#xe930;" glyph-name="chart5" horiz-adv-x="1022" d="M439.712 339.264l-320.256 320c-159.264-184.128-159.264-455.904 0-640l320.256 320zM640.032 826.944v-468.672l-331.264-331.392c74.496-55.616 164.992-90.88 264.992-90.88 248.736 0 450.24 201.248 450.24 449.888 0.032 225.856-167.424 408.864-383.968 441.056zM512 447.488v512.512c-139.488-8.64-265.504-62.016-367.264-145.184l367.264-367.328z" />
<glyph unicode="&#xe931;" glyph-name="star" d="M708.384 332l315.616 244h-384l-128 384-128-384h-384l316-243.008-124-396.992 320.512 245.76 319.744-245.76z" />
<glyph unicode="&#xe932;" glyph-name="bullhorn" d="M1024 530.744c0 200.926-58.792 363.938-131.482 365.226 0.292 0.006 0.578 0.030 0.872 0.030h-82.942c0 0-194.8-146.336-475.23-203.754-8.56-45.292-14.030-99.274-14.030-161.502s5.466-116.208 14.030-161.5c280.428-57.418 475.23-203.756 475.23-203.756h82.942c-0.292 0-0.578 0.024-0.872 0.032 72.696 1.288 131.482 164.298 131.482 365.224zM864.824 220.748c-9.382 0-19.532 9.742-24.746 15.548-12.63 14.064-24.792 35.96-35.188 63.328-23.256 61.232-36.066 143.31-36.066 231.124 0 87.81 12.81 169.89 36.066 231.122 10.394 27.368 22.562 49.266 35.188 63.328 5.214 5.812 15.364 15.552 24.746 15.552 9.38 0 19.536-9.744 24.744-15.552 12.634-14.064 24.796-35.958 35.188-63.328 23.258-61.23 36.068-143.312 36.068-231.122 0-87.804-12.81-169.888-36.068-231.124-10.39-27.368-22.562-49.264-35.188-63.328-5.208-5.806-15.36-15.548-24.744-15.548zM251.812 530.744c0 51.95 3.81 102.43 11.052 149.094-47.372-6.554-88.942-10.324-140.34-10.324-67.058 0-67.058 0-67.058 0l-55.466-94.686v-88.17l55.46-94.686c0 0 0 0 67.060 0 51.398 0 92.968-3.774 140.34-10.324-7.236 46.664-11.048 97.146-11.048 149.096zM368.15 317.828l-127.998 24.51 81.842-321.544c4.236-16.634 20.744-25.038 36.686-18.654l118.556 47.452c15.944 6.376 22.328 23.964 14.196 39.084l-123.282 229.152zM864.824 411.27c-3.618 0-7.528 3.754-9.538 5.992-4.87 5.42-9.556 13.86-13.562 24.408-8.962 23.6-13.9 55.234-13.9 89.078s4.938 65.478 13.9 89.078c4.006 10.548 8.696 18.988 13.562 24.408 2.010 2.24 5.92 5.994 9.538 5.994 3.616 0 7.53-3.756 9.538-5.994 4.87-5.42 9.556-13.858 13.56-24.408 8.964-23.598 13.902-55.234 13.902-89.078 0-33.842-4.938-65.478-13.902-89.078-4.004-10.548-8.696-18.988-13.56-24.408-2.008-2.238-5.92-5.992-9.538-5.992z" />
<glyph unicode="&#xe933;" glyph-name="connection" horiz-adv-x="1280" d="M640 384c105.87 0 201.87-43.066 271.402-112.598l-90.468-90.468c-46.354 46.356-110.356 75.066-180.934 75.066s-134.578-28.71-180.934-75.066l-90.468 90.468c69.532 69.532 165.532 112.598 271.402 112.598zM187.452 452.548c120.88 120.88 281.598 187.452 452.548 187.452s331.668-66.572 452.55-187.452l-90.51-90.508c-96.706 96.704-225.28 149.96-362.040 149.96-136.762 0-265.334-53.256-362.038-149.962l-90.51 90.51zM988.784 825.562c106.702-45.132 202.516-109.728 284.782-191.996v0l-90.508-90.508c-145.056 145.056-337.92 224.942-543.058 224.942-205.14 0-398-79.886-543.058-224.942l-90.51 90.51c82.268 82.266 178.082 146.862 284.784 191.994 110.504 46.738 227.852 70.438 348.784 70.438s238.278-23.7 348.784-70.438zM576 64c0 35.346 28.654 64 64 64s64-28.654 64-64c0-35.346-28.654-64-64-64s-64 28.654-64 64z" />
<glyph unicode="&#xe934;" glyph-name="podcast" d="M1024 448c0 282.77-229.23 512-512 512s-512-229.23-512-512c0-220.054 138.836-407.664 333.686-480.068l-13.686-31.932h384l-13.686 31.932c194.85 72.404 333.686 260.014 333.686 480.068zM486.79 325.174c-22.808 9.788-38.79 32.436-38.79 58.826 0 35.346 28.654 64 64 64s64-28.654 64-64c0-26.39-15.978-49.044-38.786-58.834l-25.214 58.834-25.21-58.826zM538.268 322.708c58.092 12.118 101.732 63.602 101.732 125.292 0 70.694-57.306 128-128 128-70.692 0-128-57.306-128-128 0-61.692 43.662-113.122 101.76-125.228l-74.624-174.122c-91.23 39.15-155.136 129.784-155.136 235.35 0 141.384 114.616 268 256 268s256-126.616 256-268c0-105.566-63.906-196.2-155.136-235.35l-74.596 174.058zM688.448-27.708l-73.924 172.486c126.446 42.738 217.476 162.346 217.476 303.222 0 176.73-143.268 320-320 320-176.73 0-320-143.27-320-320 0-140.876 91.030-260.484 217.476-303.222l-73.924-172.486c-159.594 68.488-271.386 227.034-271.386 411.708 0 247.332 200.502 459.834 447.834 459.834s447.834-212.502 447.834-459.834c0-184.674-111.792-343.22-271.386-411.708z" />
<glyph unicode="&#xe935;" glyph-name="price-tag" d="M976 960h-384c-26.4 0-63.274-15.274-81.942-33.942l-476.116-476.116c-18.668-18.668-18.668-49.214 0-67.882l412.118-412.118c18.668-18.668 49.214-18.668 67.882 0l476.118 476.118c18.666 18.666 33.94 55.54 33.94 81.94v384c0 26.4-21.6 48-48 48zM736 576c-53.020 0-96 42.98-96 96s42.98 96 96 96 96-42.98 96-96-42.98-96-96-96z" />
<glyph unicode="&#xe936;" glyph-name="price-tags" horiz-adv-x="1280" d="M1232 960h-384c-26.4 0-63.274-15.274-81.942-33.942l-476.116-476.116c-18.668-18.668-18.668-49.214 0-67.882l412.118-412.118c18.668-18.668 49.214-18.668 67.882 0l476.118 476.118c18.666 18.666 33.94 55.54 33.94 81.94v384c0 26.4-21.6 48-48 48zM992 576c-53.020 0-96 42.98-96 96s42.98 96 96 96 96-42.98 96-96-42.98-96-96-96zM128 416l544 544h-80c-26.4 0-63.274-15.274-81.942-33.942l-476.116-476.116c-18.668-18.668-18.668-49.214 0-67.882l412.118-412.118c18.668-18.668 49.214-18.668 67.882 0l30.058 30.058-416 416z" />
<glyph unicode="&#xe937;" glyph-name="book" d="M896 832v-832h-672c-53.026 0-96 42.98-96 96s42.974 96 96 96h608v768h-640c-70.398 0-128-57.6-128-128v-768c0-70.4 57.602-128 128-128h768v896h-64zM224.056 128v0c-0.018-0.002-0.038 0-0.056 0-17.672 0-32-14.326-32-32s14.328-32 32-32c0.018 0 0.038 0.002 0.056 0.002v-0.002h607.89v64h-607.89z" />
<glyph unicode="&#xe938;" glyph-name="stack" d="M1024 640l-512 256-512-256 512-256 512 256zM512 811.030l342.058-171.030-342.058-171.030-342.058 171.030 342.058 171.030zM921.444 499.278l102.556-51.278-512-256-512 256 102.556 51.278 409.444-204.722zM921.444 307.278l102.556-51.278-512-256-512 256 102.556 51.278 409.444-204.722z" />
<glyph unicode="&#xe939;" glyph-name="home" d="M1006.813 493.857l-155.192 155.192v179.273c0 32.415-26.268 58.685-58.73 58.685-32.388 0-58.656-26.27-58.656-58.685v-61.889l-115.553 115.557c-57.131 57.099-156.461 56.998-213.462-0.103l-388.038-388.030c-22.907-22.952-22.907-60.090 0-83.008 22.917-22.946 60.128-22.946 83.037 0l388.001 388.041c12.64 12.574 34.918 12.574 47.492 0.037l388.067-388.078c11.507-11.474 26.51-17.181 41.508-17.181 15.029 0 30.057 5.713 41.529 17.181 22.915 22.915 22.915 60.053-0.002 83.008zM532.385 687.492c-11.274 11.267-29.527 11.267-40.768 0l-341.32-341.218c-5.389-5.387-8.444-12.741-8.444-20.416v-248.872c0-58.4 47.351-105.749 105.749-105.749h168.988v261.706h190.784v-261.706h168.99c58.396 0 105.747 47.349 105.747 105.747v248.874c0 7.675-3.028 15.029-8.444 20.416l-341.282 341.218z" />
<glyph unicode="&#xe93a;" glyph-name="cart" d="M384 32c0-53.019-42.981-96-96-96s-96 42.981-96 96c0 53.019 42.981 96 96 96s96-42.981 96-96zM1024 32c0-53.019-42.981-96-96-96s-96 42.981-96 96c0 53.019 42.981 96 96 96s96-42.981 96-96zM1024 448v384h-768c0 35.346-28.654 64-64 64h-192v-64h128l48.074-412.054c-29.294-23.458-48.074-59.5-48.074-99.946 0-70.696 57.308-128 128-128h768v64h-768c-35.346 0-64 28.654-64 64 0 0.218 0.014 0.436 0.016 0.656l831.984 127.344z" />
<glyph unicode="&#xe93b;" glyph-name="coin-dollar" d="M480 896c-265.096 0-480-214.904-480-480 0-265.098 214.904-480 480-480 265.098 0 480 214.902 480 480 0 265.096-214.902 480-480 480zM480 32c-212.078 0-384 171.922-384 384s171.922 384 384 384c212.078 0 384-171.922 384-384s-171.922-384-384-384zM512 448v128h128v64h-128v64h-64v-64h-128v-256h128v-128h-128v-64h128v-64h64v64h128.002l-0.002 256h-128zM448 448h-64v128h64v-128zM576.002 256h-64.002v128h64.002v-128z" />
<glyph unicode="&#xe93c;" glyph-name="arrow" d="M867.449 10.56c29.294 0 53.068 23.775 53.068 53.068v124.922l-3.821-2.547c-9.765-6.58-21.016-10.083-32.691-10.083-15.070 0-29.399 5.731-40.438 16.239-10.507 9.977-16.663 23.139-17.831 37.467-26.641 2.441-53.068 5.625-79.071 9.445v-175.443c0-29.294 23.773-53.068 53.068-53.068h67.716zM623.654 10.56c29.295 0 53.068 23.775 53.068 53.068v187.543c-2.123 0.423-4.245 0.849-6.368 1.274-27.065 5.518-54.129 11.886-80.556 18.892-29.612 7.853-58.799 16.77-87.032 26.427v-234.030c0-29.294 23.773-53.068 53.068-53.068h67.82v-0.105zM379.858 10.56c29.295 0 53.068 23.775 53.068 53.068v260.458c-4.245 1.698-8.384 3.502-12.524 5.307-51.688 22.076-100.511 47.654-145.407 75.887-5.413 3.395-10.72 6.792-15.92 10.294v-351.948c0-29.294 23.775-53.068 53.068-53.068h67.715zM68.35 10.56h67.715c29.294 0 53.068 23.775 53.068 53.068v403.105c-7.111 5.837-14.116 11.675-20.909 17.62-45.426 39.694-84.060 83.105-114.946 129.062-14.435 21.546-27.065 43.516-37.997 65.911v-615.696c0-29.295 23.775-53.069 53.068-53.069zM22.711 744.067c3.502-9.977 7.323-19.954 11.569-29.718 2.229-5.095 4.458-10.295 6.899-15.39 0.106-0.318 0.318-0.637 0.425-0.955 5.307-11.357 11.25-22.607 17.619-33.751s13.161-22.182 20.59-33.114c9.234-13.692 19.105-27.065 29.718-40.226 2.123-2.653 4.245-5.201 6.474-7.854 4.352-5.201 8.809-10.401 13.373-15.496 2.335-2.546 4.564-5.095 6.899-7.642 9.34-10.189 19.105-20.166 29.294-29.929 7.642-7.323 15.602-14.541 23.668-21.652 21.652-18.892 44.896-37.042 69.944-54.342 2.653-1.804 5.307-3.715 8.066-5.519 2.76-1.803 5.413-3.608 8.172-5.518 5.519-3.609 11.038-7.218 16.663-10.721 8.172-5.2 16.451-10.189 24.942-15.177 11.25-6.58 22.713-13.055 34.282-19.211 2.866-1.592 5.837-3.078 8.809-4.67 14.647-7.642 29.718-15.071 45.002-22.076 9.233-4.245 18.467-8.385 27.914-12.418v0c22.712-9.658 45.957-18.786 69.943-27.277v0c3.822-1.38 7.749-2.653 11.569-4.033 27.171-9.234 55.085-17.725 83.635-25.367 12.949-3.395 26.003-6.687 39.058-9.763 3.291-0.743 6.58-1.486 9.872-2.23 9.871-2.229 19.741-4.352 29.718-6.368v0c23.030-4.669 46.38-8.809 69.943-12.312h0.107c4.138-0.638 8.171-1.169 12.312-1.804 1.274-0.212 2.441-0.318 3.715-0.531 3.078-0.425 6.156-0.849 9.234-1.274 1.274-0.212 2.441-0.318 3.715-0.531 3.608-0.423 7.217-0.954 10.826-1.38 0.637-0.106 1.167-0.106 1.803-0.212 4.458-0.531 8.915-1.061 13.374-1.592 0.212 0 0.318 0 0.531-0.106 4.245-0.425 8.384-0.955 12.629-1.38 0.638-0.107 1.274-0.107 1.912-0.212 4.033-0.425 8.171-0.849 12.206-1.169 0.318 0 0.637-0.106 0.954-0.106 9.234-0.849 18.362-1.592 27.595-2.335v-24.624c0-15.601 12.844-26.534 26.641-26.534 4.987 0 10.083 1.486 14.859 4.67l21.651 14.753 91.489 62.090c15.39 10.401 15.602 32.902 0.425 43.622l-113.142 79.921c-4.776 3.396-10.083 4.883-15.177 4.883-13.798 0-26.64-10.933-26.64-26.534v-25.685c-37.467 2.972-74.403 7.43-110.806 13.373-23.562 3.822-46.912 8.279-69.944 13.374-17.3 3.821-34.387 7.96-51.369 12.524-42.773 11.357-83.635 24.73-122.587 40.119-24.093 9.446-47.443 19.635-69.944 30.567-29.611 14.328-57.737 29.93-84.378 46.7-32.902 20.804-62.833 42.879-89.473 66.229-34.813 30.355-64.212 65.592-92.232 102.103-39.27 51.158-53.917 127.045-59.224 167.483-2.017 15.92-15.602 27.702-31.522 27.702h-44.471c-18.574 0-33.221-15.814-31.735-34.282 2.229-28.232 7.323-56.252 15.284-83.741 2.124-7.751 4.671-15.604 7.324-23.352z" />
<glyph unicode="&#xe93d;" glyph-name="arrow-1" d="M245.333 494.943c84.076 0 135.885 12.332 155.584 37.074 19.66 24.663 29.509 89.907 29.509 195.612 0 105.548-9.85 170.634-29.509 195.337-19.699 24.703-71.508 37.034-155.584 37.034-84.036 0-135.885-12.332-155.544-37.034-19.699-24.703-29.509-89.789-29.509-195.337 0-105.509 9.81-170.634 29.509-195.455 19.66-24.782 71.547-37.231 155.544-37.231zM146.759 787.396c0 42.668 5.319 69.735 15.917 81.16 10.638 11.386 35.931 17.099 75.96 17.099 52.754 0 83.603-6.619 92.547-19.778 8.983-13.198 13.435-58.309 13.435-135.451 0-76.433-4.688-122.371-14.065-137.815-9.416-15.444-37.507-23.127-84.233-23.127-44.914 0-72.769 5.476-83.485 16.429-10.638 10.953-16.035 39.556-16.035 85.849l-0.709 55.67 0.67 59.964zM959.899 364.062c-19.699 24.703-71.508 36.956-155.584 36.956-84.036 0-135.845-12.292-155.544-36.956s-29.47-89.789-29.47-195.376c0-105.548 9.771-170.594 29.47-195.455 19.699-24.821 71.508-37.231 155.544-37.231 84.076 0 135.885 12.332 155.584 37.034 19.66 24.703 29.509 89.946 29.509 195.652 0 105.587-9.85 170.673-29.509 195.376zM889.494 33.511c-9.377-15.484-37.468-23.087-84.233-23.087-44.875 0-72.729 5.516-83.446 16.39-10.677 10.913-16.074 39.556-16.074 85.928l-0.67 55.591 0.67 60.004c0 42.629 5.319 69.735 15.877 81.2 10.677 11.386 35.931 17.138 75.999 17.138 52.754 0 83.603-6.619 92.547-19.778 9.022-13.238 13.474-58.27 13.474-135.451-0.118-76.472-4.807-122.41-14.144-137.933zM861.364 717.701l-741.396-741.357-85.376 85.337 741.396 741.396-103.696 103.696h292.808v-292.808l-103.736 103.736z" />
<glyph unicode="&#xe93e;" glyph-name="arrows" d="M768.836 439.014c-0.836 0.836-58.305 56.216-203.128 88.607h-3.344v223.608c61.022-8.986 117.864-31.765 170.736-69.172l77.113 109.714c-77.949 52.872-160.078 82.965-247.85 89.443v60.813h-76.487v-59.35c-77.113-3.971-139.807-27.585-187.664-71.471-110.55-98.847-67.082-256-43.050-285.257 8.986-14.629 20.271-26.749 33.228-38.243 41.378-34.9 107.207-63.321 197.486-84.428v-230.713c-70.635 11.285-138.971 45.558-206.472 104.072l-86.936-105.744c86.1-75.651 184.529-118.7 293.407-129.985v-86.936h76.487v86.1c134.165 7.523 194.142 70.635 194.978 71.471 63.948 49.528 124.552 210.442 11.494 327.471zM486.087 548.728c-44.722 14.629-74.815 29.257-90.279 44.722-16.3 15.464-46.393 77.113 6.478 129.985 19.226 19.226 47.856 28.421 83.801 31.765v-206.472zM652.643 200.986c-21.943-18.599-52.036-29.257-90.279-33.228v214.413c47.856-14.629 80.875-28.839 97.593-45.558 47.229-47.229 19.853-119.954-7.314-135.628zM877.714 281.443c-1.254-81.502-26.749-151.092-92.578-206.472v0l65.829-77.113 173.035 201.456h-91.115v438.857h-164.258v-141.479c0.209 0 111.386-66.247 109.087-215.249zM255.164 454.478v-137.3l-50.364-60.186v0.836h-113.685v438.857h-91.115l172.199 202.292 69.172-80.457c-41.378-48.692-61.231-107.624-61.858-176.379 0 0-7.732-115.357 75.651-187.664z" />
<glyph unicode="&#xe93f;" glyph-name="arrows-1" d="M1.302 808.56l45.498-45.498 73.767 73.767v-898.225h64.345v898.227l73.769-73.769 45.498 45.498-151.438 151.44zM977.2 132.938l-73.769-73.767v898.227h-64.345v-898.227l-73.767 73.767-45.498-45.498 151.438-151.44 151.44 151.44zM572.17 544.866h64.345c0 57.533-39.231 106.058-92.341 120.278v26.98h-64.345v-26.98c-53.11-14.22-92.341-62.743-92.341-120.278 0-58.858 30.89-101.030 86.977-118.749l5.364-1.694v-124.096c-16.811 10.683-27.996 29.457-27.996 50.807h-64.345c0-57.533 39.231-106.058 92.341-120.278v-26.98h64.345v26.98c53.11 14.22 92.341 62.743 92.341 120.278 0 58.858-30.89 101.030-86.977 118.749l-5.364 1.694v124.096c16.809-10.681 27.996-29.457 27.996-50.807zM479.826 493.186c-19.449 10.098-27.996 26.216-27.996 51.682 0 21.35 11.187 40.125 27.996 50.807v-102.489zM572.17 351.134c0-21.35-11.187-40.125-27.996-50.807v102.489c19.449-10.098 27.996-26.216 27.996-51.682z" />
<glyph unicode="&#xe940;" glyph-name="business-(2)" d="M1001.524 419.924h-39.78v141.967c0 106.229-86.424 192.656-192.656 192.656-20.004 0-39.303-3.071-57.459-8.754-68.188 117.945-192.898 190.432-330.175 190.432-210.332 0-381.454-171.122-381.454-381.456 0-210.323 171.122-381.432 381.456-381.432 45.927 0 90.418 7.987 132.713 23.732v-214.818c0-12.414 10.062-22.476 22.476-22.476h464.878c12.414 0 22.476 10.062 22.476 22.476v415.196c0 12.414-10.062 22.476-22.476 22.476zM916.791 561.89v-141.967h-30.757v141.967c0 64.485-52.462 116.947-116.947 116.947s-116.947-52.462-116.947-116.947v-141.967h-30.757v141.967c0 81.444 66.26 147.704 147.704 147.704s147.704-66.26 147.704-147.704zM713.751 607.886c2.77-17.494 4.188-35.257 4.188-53.117 0-40.471-7.020-79.63-20.844-116.836v123.957c-0.002 17.475 6.263 33.513 16.656 45.996zM754.922 632.477c4.583 0.918 9.317 1.408 14.165 1.408 39.698 0 71.995-32.297 71.995-71.995v-141.967h-102.726c16.275 42.906 24.532 88.111 24.532 134.845 0 26.217-2.702 52.263-7.966 77.708zM514.17 397.448v-58.696c-39.844-24.561-85.469-37.514-132.713-37.514-139.797 0-253.531 113.734-253.531 253.531s113.734 253.531 253.531 253.531c96.439 0 184.153-54.716 226.884-140.386-20.141-30.435-31.909-66.873-31.909-106.024v-141.967h-39.785c-12.414 0-22.476-10.062-22.476-22.476zM381.456 218.289c-185.549 0-336.504 150.945-336.504 336.48 0 185.549 150.955 336.504 336.504 336.504 119.542 0 228.311-62.299 288.958-163.993-10.99-6.582-21.284-14.205-30.714-22.77-52.954 91.322-151.033 148.743-258.244 148.743-164.582 0-298.484-133.899-298.484-298.484s133.899-298.484 298.484-298.484c46.516 0 91.703 10.696 132.713 31.109v-41.903c-41.905-18.038-86.476-27.203-132.713-27.203zM979.048 4.727h-419.926v370.244h419.926v-370.244zM403.93 711.48v18.369c0 12.414-10.062 22.476-22.476 22.476s-22.476-10.062-22.476-22.476v-18.369c-37.405-2.16-67.18-33.265-67.18-71.202v-36.643c0-37.937 29.773-69.042 67.18-71.202v-89.174c-12.575 2.002-22.228 12.892-22.228 26.020 0 12.414-10.062 22.476-22.476 22.476s-22.476-10.062-22.476-22.476c0-37.937 29.773-69.042 67.18-71.202v-18.369c0-12.414 10.062-22.476 22.476-22.476s22.476 10.062 22.476 22.476v18.369c37.405 2.16 67.18 33.265 67.18 71.202v36.643c0 37.937-29.773 69.042-67.18 71.202v89.176c12.575-2.002 22.228-12.892 22.228-26.020v-20.356c0-12.414 10.062-22.476 22.476-22.476s22.476 10.062 22.476 22.476v20.356c0 37.935-29.775 69.040-67.18 71.2zM336.75 603.632v36.643c0 13.128 9.653 24.019 22.228 26.020v-88.684c-12.575 2.004-22.228 12.892-22.228 26.020zM426.158 505.918v-36.643c0-13.131-9.651-24.019-22.228-26.020v88.684c12.575-2.002 22.228-12.889 22.228-26.020z" />
<glyph unicode="&#xe941;" glyph-name="business-1-(2)" d="M272.551 619.027c16.466 0 30.25-6.884 41.326-20.66l21.797 24.706c-17.375 19.619-38.943 29.429-64.698 29.429-23.063 0-42.565-7.793-58.518-23.366-15.943-15.571-23.92-35.008-23.92-58.291 0-23.285 7.822-42.565 23.475-57.846 15.646-15.272 35.564-22.908 59.749-22.908s45.19 10.029 63.012 30.099l-22.463 23.138c-10.93-13.628-25.015-20.447-42.229-20.447-12.581 0-23.291 4.42-32.126 13.256-8.831 8.836-13.253 20.555-13.253 35.152 0 14.603 4.675 26.208 14.037 34.822 9.362 8.612 20.63 12.915 33.813 12.915zM408.678 648.909l-67.837-157.019h37.286l14.603 33.919h65.812l14.603-33.919h37.286l-67.837 157.019h-33.917zM405.98 556.58l19.772 45.599 19.546-45.599h-39.317zM655.995 596.791c0 18.267-5.204 31.525-15.609 39.756-10.409 8.24-27.821 12.359-52.228 12.359h-59.53v-157.019h35.046v50.094h24.258l34.816-50.094h43.129l-39.756 56.157c19.909 7.341 29.874 23.585 29.874 48.747zM613.767 578.15c-4.347-3.9-12.505-5.845-24.486-5.845h-25.606v46.504h26.281c11.231 0 19.090-1.578 23.585-4.723 4.493-3.145 6.735-8.942 6.735-17.406 0-8.466-2.169-14.639-6.51-18.53zM811.884 628.354c-14.975 13.703-36.465 20.555-64.47 20.555h-55.482v-157.019h53.687c29.947 0 52.226 7.109 66.83 21.341 14.597 14.223 21.899 33.539 21.899 57.952 0 24.407-7.492 43.468-22.463 57.171zM786.167 535.019c-8.614-8.085-20.931-12.133-36.956-12.133h-22.235v95.474h19.546c17.813 0 31.031-4.155 39.646-12.47 8.606-8.315 12.917-20.183 12.917-35.608s-4.311-27.176-12.917-35.263zM868.64 778.234h-713.277c-85.669 0-155.364-69.701-155.364-155.362v-349.744c-0.209-45.601 33.088-155.362 155.364-155.362h713.287c127.137 0 155.349 121.275 155.349 143.68 0 33.186 0 361.426 0 361.426 0 85.661-69.691 155.362-155.36 155.362zM43.576 282.616v89.788h936.851v-89.788h-936.851zM43.576 622.872c0 61.636 50.151 111.787 111.787 111.787h713.277c61.639 0 111.785-50.151 111.785-111.787v-206.894h-936.849v206.894zM868.651 161.339h-713.287c-49.85 0-92.127 32.087-106.5 77.703h926.287c-14.372-45.616-56.65-77.703-106.5-77.703z" />
<glyph unicode="&#xe942;" glyph-name="business-2" d="M965.263 657.165h-82.766v-33.354h49.412v-451.862h-142.815v33.521h-33.354v-33.521l-25.397-50.782v84.313h-33.354v-184.71h327.011v518.905l-58.737 117.49zM734.119 54.125l42.074 84.136h168.64l42.074-84.136h-252.788zM990.66 121.166v0l-25.397 50.782v410.635l25.397-50.782v-410.635zM641.742 121.192l-25.385 50.757v33.521h-33.354v-33.521h-142.815v33.521h-33.354v-33.521l-25.397-50.782v84.313h-33.354v-184.71h327.011v184.71h-33.352v-84.288zM385.215 54.125l42.074 84.136h168.64l42.074-84.136h-252.788zM849.143 757.75h0.012l-58.751 117.49h-209.523l-58.749-117.49v-518.915h327.011v518.915zM614.237 841.875h142.815v-451.862h-142.815v451.862zM555.486 749.865l25.397 50.782v-410.635l-25.397-50.768v410.621zM559.251 272.189l42.074 84.136h168.64l42.074-84.136h-252.788zM815.801 339.241v0l-25.397 50.782v410.633l25.397-50.782v-410.633zM293.657 121.166l-25.397 50.782v33.521h-33.354v-33.521h-142.801v451.862h48.602v33.354h-81.956l-58.751-117.49v-518.915h327.011v184.722h-33.354v-84.315zM33.354 531.801l25.397 50.782v-410.635l-25.397-50.782v410.635zM37.118 54.125l42.074 84.136h168.64l42.074-84.136h-252.788zM501.046 757.75h0.012l-58.751 117.49h-209.523l-58.749-117.49v-518.915h327.011v518.915zM266.14 841.875h142.827v-451.862h-142.827v451.862zM207.401 749.865l25.397 50.782v-410.635l-25.397-50.782v410.635zM211.166 272.189l42.074 84.136h168.64l42.074-84.136h-252.788zM467.706 339.241l-25.397 50.782v410.633l25.397-50.782v-410.633z" />
<glyph unicode="&#xe943;" glyph-name="phone-hang-up" d="M1017.378 384.006c8.004-55.482 13.216-131.392-11.664-160.446-41.142-48.044-301.712-48.044-301.712 48.042 0 48.398 42.856 80.134 1.712 128.178-40.472 47.262-113.026 48.030-193.714 48.042-80.686-0.012-153.242-0.78-193.714-48.042-41.142-48.046 1.714-79.78 1.714-128.178 0-96.086-260.57-96.086-301.714-48.044-24.878 29.054-19.668 104.964-11.662 160.446 6.16 37.038 21.724 76.996 71.548 127.994 0 0.002 0.002 0.002 0.002 0.004 74.738 69.742 187.846 126.738 429.826 127.968v0.030c1.344 0 2.664-0.010 4-0.014 1.338 0.004 2.656 0.014 4 0.014v-0.028c241.98-1.23 355.088-58.226 429.826-127.968 0.002-0.002 0.002-0.004 0.002-0.004 49.824-50.996 65.39-90.954 71.55-127.994z" />
<glyph unicode="&#xe944;" glyph-name="address-book" d="M192 960v-1024h768v1024h-768zM576 703.67c70.51 0 127.67-57.16 127.67-127.67s-57.16-127.67-127.67-127.67-127.67 57.16-127.67 127.67 57.16 127.67 127.67 127.67v0zM768 192h-384v64c0 70.696 57.306 128 128 128v0h128c70.696 0 128-57.304 128-128v-64zM64 896h96v-192h-96v192zM64 640h96v-192h-96v192zM64 384h96v-192h-96v192zM64 128h96v-192h-96v192z" />
<glyph unicode="&#xe945;" glyph-name="business-3" d="M535.273 354.909c0-64.266-52.098-116.364-116.364-116.364s-116.364 52.098-116.364 116.364c0 64.266 52.098 116.364 116.364 116.364s116.364-52.098 116.364-116.364zM512 960c-283.927 0-512-228.073-512-512s228.073-512 512-512 512 228.073 512 512-228.073 512-512 512zM807.564 678.4l-204.8-204.8c-4.655-4.655-4.655-9.309-2.327-13.964 18.618-30.255 27.927-65.164 27.927-104.727 0-116.364-93.091-209.455-209.455-209.455s-209.455 93.091-209.455 209.455 93.091 209.455 209.455 209.455c37.236 0 72.145-9.309 104.727-27.927 4.655-2.327 9.309-2.327 13.964 2.327l18.618 18.618c4.655 4.655 4.655 11.636 0 16.291l-11.636 11.636c-9.309 9.309-9.309 23.273 0 32.582l32.582 32.582c9.309 9.309 23.273 9.309 32.582 0l11.636-11.636c4.655-4.655 11.636-4.655 16.291 0l11.636 11.636c4.655 4.655 4.655 11.636 0 16.291l-11.636 11.636c-9.309 9.309-9.309 23.273 0 32.582l32.582 32.582c4.655 4.655 11.636 6.982 16.291 6.982s11.636-2.327 16.291-6.982l11.636-11.636c4.655-4.655 11.636-4.655 16.291 0l11.636 11.636c4.655 4.655 11.636 6.982 16.291 6.982s11.636-2.327 16.291-6.982l32.582-32.582c4.655-4.655 6.982-11.636 6.982-16.291s-2.327-11.636-6.982-16.291z" />
<glyph unicode="&#xe946;" glyph-name="pushpin" d="M544 960l-96-96 96-96-224-256h-224l176-176-272-360.616v-39.384h39.384l360.616 272 176-176v224l256 224 96-96 96 96-480 480zM448 416l-64 64 224 224 64-64-224-224z" />
<glyph unicode="&#xe947;" glyph-name="cogwheel" d="M509.028 285.368c-25.674 61.577 3.757 132.547 65.334 158.221s132.547-3.757 158.221-65.334c25.674-61.577-3.757-132.547-65.334-158.221s-132.547 3.757-158.221 65.334zM999.555 244.456l-56.776 23.378c8.349 41.538 8.558 85.164 0 128.163l56.567 23.587c13.777 5.636 20.456 21.5 14.611 35.485l-28.179 68.048c-5.636 13.777-21.5 20.456-35.485 14.611l-56.776-23.587c-24.422 36.529-55.524 67.213-90.8 90.591l23.378 56.776c5.636 13.777-0.835 29.64-14.611 35.276l-67.839 28.388c-13.777 5.636-29.64-0.835-35.276-14.611l-23.378-56.776c-25.048 5.010-50.931 7.097-76.815 6.053-5.218-38.825-35.694-69.509-74.101-75.145-0.417-0.835-0.626-1.461-1.044-2.296 10.854-14.82 16.908-32.771 16.908-51.766 0-7.932-1.044-15.446-3.131-22.961 0.417 0.209 0.626 0.417 1.044 0.417 97.271 40.495 209.361-5.845 249.856-103.324 40.495-97.271-5.845-209.361-103.324-249.856-97.271-40.495-209.361 5.845-249.856 103.324-22.126 53.645-18.16 111.465 6.262 159.474-23.378-4.175-48.218 0.835-68.048 15.655-0.835-0.417-1.461-0.626-2.296-0.835-6.471-41.956-42.791-74.101-86.416-74.101-2.505-30.058-1.044-60.742 5.218-91.426l-56.567-23.587c-13.777-5.636-20.456-21.5-14.611-35.485l28.179-68.048c5.636-13.777 21.5-20.456 35.485-14.611l56.776 23.587c24.422-36.529 55.524-67.213 90.8-90.591l-23.378-56.776c-5.636-13.777 0.835-29.64 14.611-35.276l68.256-28.179c13.777-5.636 29.64 0.835 35.276 14.611l23.378 56.776c41.538-8.349 85.164-8.558 128.372 0l23.587-56.567c5.636-13.777 21.5-20.456 35.485-14.611l68.048 28.179c13.777 5.636 20.456 21.5 14.611 35.485l-23.587 56.567c36.529 24.422 67.213 55.524 90.591 90.8l56.776-23.378c13.777-5.636 29.64 0.835 35.276 14.611l28.179 68.256c5.218 14.194-1.461 29.849-15.238 35.694zM65.466 650.863l-35.276 0.209c-12.524 0-22.752 10.228-22.752 22.961l0.209 38.407c0 12.524 10.228 22.752 22.961 22.752l35.276-0.209c5.427 27.136 16.281 53.227 32.354 76.815l-24.631 24.839c-8.767 8.976-8.767 23.378 0.209 32.145l27.136 26.927c8.976 8.767 23.378 8.767 32.145-0.209l24.839-25.048c23.796 15.864 50.096 26.301 77.232 31.519l0.209 35.276c0 12.524 10.228 22.752 22.961 22.752l38.407-0.209c12.524 0 22.752-10.228 22.752-22.961l-0.209-35.276c27.136-5.427 53.227-16.281 76.815-32.354l25.048 24.839c8.976 8.767 23.378 8.767 32.145-0.209l26.927-27.136c8.767-8.976 8.767-23.378-0.209-32.145l-25.048-24.839c15.864-23.796 26.301-50.096 31.519-77.232l35.276-0.209c12.524 0 22.752-10.228 22.752-22.961l-0.209-38.407c0-12.524-10.228-22.752-22.961-22.752l-35.276 0.209c-5.427-27.136-16.281-53.227-32.354-76.815l24.839-25.048c8.767-8.976 8.767-23.378-0.209-32.145l-27.136-26.927c-8.976-8.767-23.378-8.767-32.145 0.209l-24.839 25.048c-23.796-15.864-50.096-26.301-77.232-31.519l-0.209-35.276c0-12.524-10.228-22.752-22.961-22.752l-38.407 0.209c-12.524 0-22.752 10.228-22.752 22.961l0.209 35.276c-27.136 5.427-53.227 16.281-76.815 32.354l-25.048-24.839c-8.976-8.767-23.378-8.767-32.145 0.209l-26.927 27.136c-8.767 8.976-8.767 23.378 0.209 32.145l25.048 24.839c-16.073 24.005-26.509 50.305-31.728 77.441zM203.439 619.971c39.66-40.077 104.159-40.495 144.236-0.835s40.495 104.159 0.835 144.236-104.159 40.495-144.236 0.835c-40.286-39.66-40.495-104.159-0.835-144.236z" />
<glyph unicode="&#xe948;" glyph-name="cogwheel-1" d="M1024 496.538c0 17.745-12.735 32.776-30.48 35.908l-95.198 16.075c-9.186 35.908-23.591 70.354-42.797 102.922l55.949 78.496c10.438 14.614 8.768 34.446-3.967 47.181l-33.82 33.82-33.82 33.611c-12.735 11.482-32.568 13.152-46.972 2.923l-78.496-56.158c-32.568 19.207-67.014 33.403-102.922 42.588l-16.284 95.198c-3.131 17.745-18.371 30.48-35.908 30.48h-95.198c-17.745 0-32.776-12.735-35.908-30.48l-16.075-95.406c-36.534-9.186-71.816-23.799-105.010-44.259l-78.079 55.323c-14.614 10.438-34.446 8.768-47.181-3.967l-67.223-67.223c-12.526-12.526-14.196-32.568-3.967-47.181l56.367-79.331c-19.207-32.568-32.776-67.64-41.962-102.922l-94.571-15.031c-17.745-3.131-30.48-18.371-30.48-35.908v-95.198c0-17.745 12.735-32.776 30.48-35.908l95.824-16.075c9.394-35.699 23.799-69.937 43.215-102.296l-55.323-78.079c-10.438-14.614-8.768-34.446 3.967-47.181l67.64-67.64c12.526-12.526 32.568-14.196 47.181-3.967l79.331 56.367c32.568-19.207 67.64-32.776 102.922-41.962l15.866-94.362c3.131-17.745 18.371-30.48 35.908-30.48h95.198c17.745 0 32.776 12.735 35.908 30.48l16.075 95.824c34.655 9.186 68.893 23.173 100.208 41.753l78.496-55.949c14.614-10.438 34.446-8.768 47.181 3.967l67.64 67.64c12.526 12.526 14.196 32.568 3.967 47.181l-56.158 78.496c19.207 32.568 33.403 67.014 42.588 102.922l95.198 16.284c17.745 3.131 30.48 18.371 30.48 35.908v47.599l0.209 48.016zM672.020 293.826c-86.638-86.847-227.347-86.847-313.985-0.209-86.847 86.638-86.847 227.347-0.209 313.985s227.347 86.847 313.985 0.209c86.847-86.638 87.056-227.138 0.209-313.985zM646.133 450.61c0-72.408-58.698-131.105-131.105-131.105s-131.105 58.698-131.105 131.105c0 72.408 58.698 131.105 131.105 131.105s131.105-58.698 131.105-131.105z" />
<glyph unicode="&#xe949;" glyph-name="cogwheel-2" d="M634.387 324.882c-9.398-9.398-9.398-24.645 0-33.834l222.009-222.009 33.834 33.834-221.801 222.009c-9.398 9.398-24.645 9.398-34.043 0zM1023.269 448.104v47.827c0 17.752-12.949 33.207-30.492 36.131l-95.236 15.873c-9.398 36.549-23.809 71.010-42.606 102.964l55.972 78.737c10.234 14.62 8.563 34.461-3.968 46.992l-67.25 67.25c-12.531 12.531-32.372 14.202-46.992 3.759l-78.737-55.972c-31.954 19.006-66.415 32.999-102.964 42.606l-16.082 95.236c-2.924 17.752-18.17 30.492-36.131 30.492h-95.654c-17.126-0.835-32.372-13.784-35.296-31.119l-15.873-95.236c-36.549-9.398-71.010-23.809-102.964-42.606l-78.737 55.972c-14.62 10.234-34.461 8.563-46.992-3.968l-33.416-34.043-33.625-33.625c-12.531-12.531-14.202-32.372-3.759-46.992l55.972-78.737c-19.423-32.372-34.043-67.668-43.023-105.47l-94.192-16.082c-17.544-2.924-30.492-18.17-30.492-36.131v-95.654c0-17.752 12.949-33.207 30.492-36.131l96.072-16.29c9.398-36.549 24.645-71.010 43.023-102.337l-56.39-77.484c-10.234-14.62-8.563-34.461 3.968-46.992l67.25-67.25c12.531-12.531 32.372-14.202 46.992-3.759l79.155 56.39c31.954-18.588 66.415-32.581 102.964-41.77l16.082-94.192c3.133-17.752 18.17-30.492 36.131-30.492h95.654c17.752 0 33.207 12.949 36.131 30.492l16.29 96.072c8.354 2.089 16.499 4.595 24.436 7.31 2.089 0.627 4.386 1.462 6.474 2.297 6.683 2.297 13.158 4.804 19.632 7.519 1.462 0.627 2.924 1.253 4.386 1.88 7.728 3.342 15.246 6.892 22.765 10.651 0.209 0.209 0.418 0.209 0.627 0.418 7.519 3.759 15.037 7.936 22.138 12.113 4.595 2.715 9.189 5.639 13.575 8.563l-122.805 122.805c-21.929 21.929-52.422 32.581-83.541 30.492-52.631-3.55-106.514 14.62-146.614 54.928-48.662 48.662-65.162 117.584-49.498 180.030 1.044 4.595 6.892 6.057 10.025 2.715l76.649-76.649c22.765-22.765 60.358-22.765 83.123 0.209l34.878 34.878c22.974 22.974 22.974 60.358 0.209 83.123l-80.617 80.617c-3.133 3.133-1.88 8.563 2.297 10.025 65.371 20.885 139.931 5.639 191.726-46.156 42.188-42.188 60.149-99.413 54.093-154.55-3.55-32.79 7.101-65.579 30.492-88.971l116.33-116.33c3.759 5.848 7.31 11.696 10.86 17.544 3.968 6.892 7.728 13.784 11.278 20.885 1.044 2.089 2.089 4.177 3.133 6.266 2.297 4.804 4.386 9.607 6.683 14.62 1.671 3.759 3.342 7.728 4.804 11.487 1.044 2.506 1.88 5.221 2.924 7.936 2.089 5.43 3.968 10.86 5.848 16.499v0c2.297 7.519 4.595 14.828 6.683 22.347l95.236 16.082c17.752 2.924 30.492 18.17 30.492 36.131v47.827z" />
<glyph unicode="&#xe94a;" glyph-name="coins-(2)" d="M437.75 936.336c-31.551 31.551-83.085 31.551-114.637 0l-143.664-143.874h402.175l-143.874 143.874zM596.348-41.125c30.5-30.5 80.351-30.5 110.851 0l139.036 139.036h-388.923l139.036-139.036zM506.322 622.716c-98.020 0-177.529-79.509-177.529-177.529s79.509-177.529 177.529-177.529 177.529 79.509 177.529 177.529c0.208 98.020-79.299 177.529-177.529 177.529zM557.435 375.143c-7.783-9.465-17.879-15.776-29.658-18.931-5.048-1.472-7.362-3.997-7.152-9.465 0.21-5.259 0-10.517 0-15.776 0-4.628-2.314-7.152-6.941-7.362-5.679-0.21-11.358-0.21-16.827 0-5.048 0-7.362 2.945-7.362 7.783 0 3.786 0 7.572-0.21 11.569 0 8.414-0.421 8.834-8.414 10.096-10.307 1.683-20.614 3.997-30.079 8.624-7.572 3.576-8.203 5.469-6.1 13.252 1.683 5.89 3.155 11.779 5.048 17.458 2.103 6.731 3.997 7.572 10.096 4.417 10.517-5.469 21.665-8.624 33.444-10.096 7.572-0.841 14.934-0.21 21.876 2.945 13.041 5.679 15.145 20.824 3.997 29.869-3.786 3.155-7.993 5.469-12.41 7.362-11.358 5.048-23.348 8.834-34.286 15.355-17.458 10.517-28.607 24.82-27.345 46.275 1.472 24.189 15.145 39.124 37.231 47.327 9.045 3.365 9.255 3.155 9.255 12.621 0 3.155 0 6.521 0 9.676 0.21 7.152 1.472 8.414 8.624 8.624 2.314 0 4.417 0 6.731 0 15.355 0 15.355 0 15.355-15.145 0-10.727 0-10.938 10.727-12.621 8.203-1.262 15.986-3.786 23.769-7.152 4.207-1.893 5.679-4.838 4.417-9.255-1.893-6.521-3.786-13.252-5.89-19.772-1.893-6.1-3.997-7.152-9.886-4.207-11.99 5.679-24.4 8.203-37.651 7.362-3.365-0.21-6.731-0.631-10.096-2.103-11.358-5.048-13.252-17.458-3.576-25.241 4.838-3.997 10.517-6.731 16.196-9.255 10.096-4.207 20.193-8.203 29.658-13.462 30.708-16.617 38.911-54.689 17.458-80.772zM297.452 436.142c0-27.184-22.037-49.22-49.22-49.22s-49.22 22.037-49.22 49.22c0 27.184 22.037 49.22 49.22 49.22s49.22-22.037 49.22-49.22zM814.053 436.142c0-27.184-22.037-49.22-49.22-49.22s-49.22 22.037-49.22 49.22c0 27.184 22.037 49.22 49.22 49.22s49.22-22.037 49.22-49.22zM898.609 734.618h-773.219c-44.593 0-80.982-36.389-80.982-80.982v-416.899c0-44.593 36.389-80.982 80.982-80.982h773.219c44.593 0 80.982 36.389 80.982 80.982v416.899c0 44.593-36.387 80.982-80.982 80.982zM910.388 320.664c-4.628 0.841-9.465 1.262-14.514 1.262-45.224 0-82.034-36.81-82.034-82.034 0-5.259 0.421-10.096 1.472-15.145h-600.107c0.421 3.365 0.631 6.731 0.631 10.096 0 45.224-36.81 82.034-82.034 82.034-6.941 0-13.883-0.841-20.193-2.524v251.57c6.521-1.683 13.252-2.524 20.193-2.524 45.224 0 82.034 36.81 82.034 82.034 0 6.941-0.841 13.672-2.524 19.983h602c-0.841-4.838-1.472-9.886-1.472-15.145 0-45.224 36.81-82.034 82.034-82.034 4.838 0 9.676 0.421 14.514 1.262v-248.835z" />
<glyph unicode="&#xe94b;" glyph-name="commerce" d="M973.662 181.783c-24.851-98.968-67.453-190.371-151.571-221.462-219.316-81.137-455.734 74.938-621.28-22.030l-152.949 153.028c81.985 34.588 186.49 168.143 307.885 183.748 63.042 8.12 142.577-27.66 221.462-34.972 69.493-6.517 186.98 30.335 198.227-46.709 9.75-66.619-107.936-63.029-186.57-69.917 61.532-12.24 127.939-69.811 178.582-55.809 65.307 18.029 99.193 114.52 144.736 142.471 51.504 31.779 71.414 11.485 61.479-28.348zM365.257 298.701c37.012 1.921 77.322-7.405 119.567-17.605 12.134 5.431 23.606 12.81 33.568 22.745 44.020 44.086 44.020 115.407 0 159.466-43.993 44.033-235.345 75.998-235.345 75.998s31.965-191.391 75.945-235.477c1.987-2.014 4.199-3.404 6.266-5.127zM559.709 265.371c6.557-0.967 13.141-1.934 19.632-2.49 13.75-1.325 29.527-0.729 45.914 0.252l-30.163 235.835h-5.643l-29.739-233.596zM552.012 749.838c0-9.154 3.073-16.241 9.18-21.5 6.067-5.14 14.32-8.756 24.706-10.796v65.254c-12.24-0.477-20.93-4.16-26.163-11.101-5.166-6.968-7.723-14.214-7.723-21.857zM599.926 498.928h-4.769l-2.782 22.255-2.875-22.255h-4.729v1.616c-85.734 4.027-154.115 74.593-154.115 161.334 0 89.297 161.718 298.122 161.718 298.122s161.785-208.824 161.785-298.122c0-86.741-68.381-157.307-154.101-161.334v-1.616h-0.132zM599.026 595.445c16.744 1.921 29.554 5.696 38.429 11.406 16.108 10.359 24.017 27.832 24.017 52.484 0 17.009-6.226 29.885-18.705 38.588-7.67 5.286-22.295 10.955-43.755 16.956v67.612c12.757-0.411 22.122-5.312 27.911-14.704 3.14-5.074 5.087-11.167 5.696-18.188h24.295c-0.464 15.711-5.63 28.309-15.472 37.966-9.789 9.419-23.977 14.903-42.43 16.214v18.188h-13.167v-18.532c-18.652-0.185-33.117-5.868-43.437-17.155-10.333-11.313-15.472-23.977-15.472-38.085 0-15.751 4.795-28.044 14.426-36.84 9.551-8.928 24.427-15.274 44.483-19.076v-75.64c-15.658 1.325-26.414 7.18-32.217 17.632-3.206 5.815-5.233 15.035-5.921 27.752h-24.613c0-16.002 2.636-28.587 7.961-37.939 9.657-17.353 27.832-26.812 54.789-28.64v-26.957h13.167v26.957h0.013zM599.026 688.955v-73.070c15.923 0.755 26.772 6.61 32.826 17.38 3.193 5.537 4.703 12.015 4.703 19.288 0 11.538-4.345 20.361-12.81 26.361-4.862 3.537-13.114 6.888-24.719 10.041zM825.654 303.827c43.993 44.086 75.984 235.451 75.984 235.451s-191.391-31.965-235.411-75.998c-43.993-44.059-43.993-115.367 0-159.466 44.020-44.006 115.434-44.006 159.427 0.013z" />
<glyph unicode="&#xe94c;" glyph-name="computer" d="M0 200.784v462.85c0 36.392 29.49 65.882 65.882 65.882h346.353c-3.974-18.824-6.065-38.065-6.065-57.935 0-10.667 0.837-21.333 2.092-32h-318.327v-414.118h637.072v137.621c7.529-0.418 14.85-0.627 22.379-0.627 23.216 0 45.595 2.092 67.556 6.065v-167.739c0-36.392-29.49-65.882-65.882-65.882h-268.758v-73.621h52.497c8.784 0 15.895-7.111 15.895-15.895v-45.804c0-8.784-7.111-15.895-15.895-15.895h-252.654c-8.784 0-15.895 7.111-15.895 15.895v45.804c0 8.784 7.111 15.895 15.895 15.895h52.497v73.621h-268.549c-36.601-0.209-66.092 29.49-66.092 65.882zM1024 671.582c0-133.020-122.98-240.732-274.614-240.732-55.007 0-106.248 14.222-149.124 38.693-38.693-23.216-80.523-22.379-104.993-19.033-6.902 1.046-8.784 9.83-2.928 13.804 23.425 15.477 36.392 37.020 43.503 56.052-38.065 41.412-61.072 93.908-61.072 151.216 0 133.020 122.98 240.732 274.614 240.732s274.614-107.712 274.614-240.732zM789.333 684.758c-11.294 5.647-23.425 10.248-34.719 15.059-6.484 2.719-13.176 5.647-18.824 10.248-11.294 9.412-9.412 23.425 3.765 29.072 3.765 0.837 7.529 1.882 11.294 1.882 15.059 0.837 29.072-1.882 43.294-8.366 6.484-3.765 9.412-2.719 11.294 4.601 1.882 7.529 4.601 15.059 6.484 22.588 0.837 4.601-0.837 8.366-5.647 10.248-8.366 3.765-17.778 6.484-27.19 8.366-12.131 1.882-12.131 1.882-12.131 14.013 0 17.778 0 17.778-17.778 17.778-2.719 0-4.601 0-7.529 0-7.529-0.837-9.412-1.882-9.412-10.248 0-3.765 0-7.529 0-11.294 0-10.248 0-10.248-10.248-14.013-25.307-9.412-41.412-27.19-43.294-54.588-1.046-24.471 11.294-40.366 32-52.706 12.131-7.529 26.353-12.131 39.529-17.778 4.601-1.882 9.412-4.601 14.013-8.366 13.176-10.248 10.248-27.19-4.601-33.882-8.366-3.765-16.941-4.601-25.307-3.765-13.176 1.882-26.353 4.601-38.484 11.294-6.484 3.765-8.366 2.719-11.294-4.601-1.882-6.484-3.765-13.176-5.647-19.66-2.719-8.366-1.882-11.294 6.484-15.059 11.294-5.647 22.588-8.366 34.719-10.248 9.412-0.837 9.412-1.882 9.412-11.294 0-4.601 0-8.366 0-13.176 0-4.601 2.719-8.366 8.366-8.366 6.484 0 13.176 0 19.66 0 5.647 0 8.366 2.719 8.366 8.366s0 12.131 0 17.778 2.719 8.366 8.366 10.248c13.176 3.765 24.471 11.294 33.882 21.542 24.261 30.536 14.85 74.667-18.824 94.327z" />
<glyph unicode="&#xe94d;" glyph-name="computer-1" d="M0 134.085v44.905h61.902v463.108c0 36.511 29.587 66.098 66.098 66.098h240.892v-90.23h-216.761v-438.977h230.4v-4.407c0-13.849 11.331-24.97 24.97-24.97h126.531c13.849 0 24.97 11.121 24.97 24.97v4.407h230.61v184.446h90.020v-184.446h61.902v-44.905c0-40.289-32.734-72.813-72.813-72.813h-795.908c-40.079 0-72.813 32.525-72.813 72.813zM1024 773.666v-282.859c0-33.574-27.279-61.062-61.062-61.062h-333.22l-104.498-104.498c-5.666-5.666-15.108-1.679-15.108 6.295v98.203h-13.639c-33.574 0-61.062 27.279-61.062 61.062v282.859c0 33.574 27.279 61.062 61.062 61.062h466.466c33.784 0 61.062-27.279 61.062-61.062zM628.249 645.456c-10.492 5.246-21.823 9.652-32.315 13.849-6.085 2.518-12.17 5.246-17.416 9.652-10.492 8.813-8.813 21.823 3.567 27.069 3.567 0.839 6.925 1.679 10.492 1.679 13.849 0.839 27.069-1.679 40.079-7.764 6.085-3.567 8.813-2.518 10.492 4.407s4.407 13.849 6.085 20.984c0.839 4.407-0.839 7.764-5.246 9.652-7.764 3.567-16.577 6.085-25.18 7.764-11.331 1.679-11.331 1.679-11.331 13.010 0 16.577 0 16.577-16.577 16.577-2.518 0-4.407 0-6.925 0-6.925-0.839-8.813-1.679-8.813-9.652 0-3.567 0-6.925 0-10.492 0-9.652 0-9.652-9.652-13.010-23.502-8.813-38.4-25.18-40.079-50.57-0.839-22.662 10.492-37.561 29.587-48.892 11.331-6.925 24.341-11.331 36.511-16.577 4.407-1.679 8.813-4.407 13.010-7.764 12.17-9.652 9.652-25.18-4.407-31.475-7.764-3.567-15.738-4.407-23.502-3.567-12.17 1.679-24.341 4.407-35.672 10.492-6.085 3.567-7.764 2.518-10.492-4.407-1.679-6.085-3.567-12.17-5.246-18.256-2.518-7.764-1.679-10.492 6.085-13.849 10.492-5.246 20.984-7.764 32.315-9.652 8.813-0.839 8.813-1.679 8.813-10.492 0-4.407 0-7.764 0-12.17s2.518-7.764 7.764-7.764c6.085 0 12.17 0 18.256 0 5.246 0 7.764 2.518 7.764 7.764s0 11.331 0 16.577 2.518 7.764 7.764 9.652c12.17 3.567 22.662 10.492 31.475 20.144 22.872 27.698 14.269 68.616-17.207 87.082zM935.449 561.941c0 3.987-3.148 7.134-7.134 7.134h-199.974c-3.987 0-7.134-3.148-7.134-7.134v-25.39c0-3.987 3.148-7.134 7.134-7.134h199.974c3.987 0 7.134 3.148 7.134 7.134v25.39zM935.449 645.875c0 3.987-3.148 7.134-7.134 7.134h-199.974c-3.987 0-7.134-3.148-7.134-7.134v-25.39c0-3.987 3.148-7.134 7.134-7.134h199.974c3.987 0 7.134 3.148 7.134 7.134v25.39zM935.449 729.6c0 3.987-3.148 7.134-7.134 7.134h-199.974c-3.987 0-7.134-3.148-7.134-7.134v-25.39c0-3.987 3.148-7.134 7.134-7.134h199.974c3.987 0 7.134 3.148 7.134 7.134v25.39z" />
<glyph unicode="&#xe94e;" glyph-name="computer-2" d="M82.682 170.126h336.798v-92.311h-65.727c-10.885 0-19.886-8.791-19.886-19.886v-57.563c0-10.885 8.791-19.886 19.886-19.886h316.494c10.885 0 19.886 8.791 19.886 19.886v57.563c0 10.885-8.791 19.886-19.886 19.886h-65.727v92.311h336.798c45.632 0 82.682 37.050 82.682 82.682v580.029c0 45.632-37.050 82.682-82.682 82.682h-858.636c-45.632 0-82.682-37.050-82.682-82.682v-580.029c0-45.632 37.050-82.682 82.682-82.682zM112.824 802.695h798.352v-519.117h-798.352v519.117zM709.599 572.651h-31.608c-4.396 22.188-13.187 42.911-25.328 61.122l22.397 22.397c5.442 5.442 5.442 14.234 0 19.676l-26.793 26.793c-5.442 5.442-14.234 5.442-19.676 0l-22.607-22.188c-18.211 12.141-38.934 20.932-61.122 25.328v31.608c0 7.745-6.28 14.025-14.025 14.025h-38.096c-7.745 0-14.025-6.28-14.025-14.025v-31.608c-22.188-4.396-42.911-13.187-61.122-25.328l-22.397 22.397c-5.442 5.442-14.234 5.442-19.676 0l-26.793-26.793c-5.442-5.442-5.442-14.234 0-19.676l22.397-22.397c-12.141-18.211-20.932-38.934-25.328-61.122h-31.608c-7.745 0-14.025-6.28-14.025-14.025v-38.096c0-7.745 6.28-14.025 14.025-14.025h31.608c4.396-22.188 13.187-42.911 25.328-61.122l-22.397-22.397c-5.442-5.442-5.442-14.234 0-19.676l26.793-26.793c5.442-5.442 14.234-5.442 19.676 0l22.397 22.397c18.211-12.141 38.934-20.932 61.122-25.328v-31.608c0-7.745 6.28-14.025 14.025-14.025h38.096c7.745 0 14.025 6.28 14.025 14.025v31.608c22.188 4.396 42.911 13.187 61.122 25.328l22.397-22.397c5.442-5.442 14.234-5.442 19.676 0l26.793 26.793c5.442 5.442 5.442 14.234 0 19.676l-22.397 22.397c12.141 18.211 20.932 38.934 25.328 61.122h31.608c7.745 0 14.025 6.28 14.025 14.025v38.096c0.209 7.536-6.070 13.815-13.815 13.815zM512 463.176c-42.283 0-76.402 34.119-76.402 76.402s34.119 76.402 76.402 76.402 76.402-34.119 76.402-76.402c0-42.074-34.119-76.402-76.402-76.402z" />
<glyph unicode="&#xe94f;" glyph-name="internet" d="M726.8 191c66 0 119.8 53.8 119.8 119.8s-53.8 119.8-119.8 119.8c-66 0-119.8-53.8-119.8-119.8s53.8-119.8 119.8-119.8zM726.8 381.8c39 0 70.8-31.8 70.8-70.8s-31.8-70.8-70.8-70.8-70.8 31.6-70.8 70.8c0 39 31.8 70.8 70.8 70.8zM494.4 374.2c-22.6 0-41-18.4-41-41v-44.8c0-22.6 18.4-41 41-41h18c4.4-15.2 10.4-29.8 18-43.6l-12.8-12.8c-7.8-7.8-12-18-12-29s4.2-21.2 12-29l31.6-31.6c7.8-7.8 18-12 29-12s21.2 4.2 29 12l12.8 12.8c13.8-7.6 28.4-13.6 43.6-18v-18c0-22.6 18.4-41 41-41h44.8c22.6 0 41 18.4 41 41v18c15.2 4.4 29.8 10.4 43.6 18l12.8-12.8c7.8-7.8 18-12 29-12s21.2 4.2 29 12l31.6 31.6c16 16 16 42 0 57.8l-12.8 12.8c7.6 13.8 13.6 28.4 18 43.6h18c22.6 0 41 18.4 41 41v44.8c0 22.6-18.4 41-41 41h-18c-4.4 15.2-10.4 29.8-18 43.6l12.8 12.8c7.8 7.8 12 18 12 29s-4.2 21.2-12 29l-32 31.6c-7.8 7.8-18 12-29 12s-21.2-4.2-29-12l-12.8-12.8c-13.8 7.6-28.4 13.6-43.6 18v18c0 22.6-18.4 41-41 41h-44.8c-22.6 0-41-18.4-41-41v-18c-15.2-4.4-29.8-10.4-43.6-18l-12.8 12.8c-7.8 7.8-18 12-29 12s-21.2-4.2-29-12l-31.6-31.6c-7.8-7.8-12-18-12-29s4.2-21.2 12-29l12.8-12.8c-7.6-13.8-13.6-28.4-18-43.6h-17.6zM531.6 325.2c11.6 0 21.8 8.2 24 19.8 4.4 22.6 13.2 43.8 26 63 6.6 9.8 5.2 22.6-3 31l-20.6 20.6 20.2 20.2 20.6-20.6c8.2-8.2 21.2-9.6 31-3 19.2 12.8 40.4 21.6 63 26 11.4 2.2 19.8 12.4 19.8 24v29.2h28.6v-29.2c0-11.8 8.2-21.8 19.8-24 22.6-4.4 43.8-13.2 63-26 9.8-6.6 22.6-5.2 31 3l20.6 20.6 20.2-20.2-20.6-20.6c-8.2-8.2-9.6-21.2-3-31 12.8-19.2 21.6-40.4 26-63 2.2-11.4 12.4-19.8 24-19.8h29.2v-28.6h-29.2c-11.6 0-21.8-8.2-24-19.8-4.4-22.6-13.2-43.8-26-63-6.6-9.8-5.2-22.6 3-31l20.6-20.6-20.2-20.2-20.6 20.6c-8.2 8.2-21.2 9.6-31 3-19.2-12.8-40.4-21.6-63-26.2-11.4-2.2-19.8-12.4-19.8-24v-29.2h-28.6v29.2c0 11.8-8.2 21.8-19.8 24-22.6 4.4-43.8 13.2-63 26.2-9.8 6.4-22.6 5.2-31-3l-20.6-20.6-20.2 20.2 20.6 20.6c8.2 8.2 9.6 21.2 3 31-12.8 19.2-21.6 40.4-26 63-2.2 11.4-12.4 19.8-24 19.8h-29.2v28.6h29.2zM23.8 792.6v-539.6c0-36.4 29.6-65.8 65.8-65.8h347.6c13.6 0 24.6 11 24.6 24.6s-11 24.6-24.6 24.6h-347.6c-9.2 0-16.8 7.6-16.8 16.8v400.6h729v-48c0-13.6 11-24.6 24.6-24.6s24.6 11 24.6 24.6v186.8c0 36.4-29.6 65.8-65.8 65.8h-695.6c-36.4 0-65.8-29.4-65.8-65.8zM801.8 792.6v-89.8h-729v89.8c0 9.2 7.6 16.8 16.8 16.8h695.2c9.4 0 17-7.4 17-16.8zM126 731.8c6.4 0 12.8 2.6 17.4 7.2s7.2 10.8 7.2 17.4c0 6.4-2.6 12.8-7.2 17.4-9.2 9-25.6 9-34.6-0.2-4.6-4.6-7.2-10.8-7.2-17.2s2.6-12.8 7.2-17.4c4.4-4.8 10.8-7.2 17.2-7.2zM203.8 731.8c6.4 0 12.8 2.6 17.2 7.2 4.6 4.6 7.2 10.8 7.2 17.4 0 6.4-2.6 12.8-7.2 17.4-9.2 9-25.6 9-34.6-0.2-4.6-4.6-7.2-10.8-7.2-17.2s2.6-12.8 7.2-17.4c4.6-4.8 11-7.2 17.4-7.2zM281.6 731.8c6.4 0 12.8 2.6 17.4 7.2s7.2 10.8 7.2 17.4c0 6.4-2.6 12.8-7.2 17.2-9.2 9.2-25.6 9.2-34.6 0-4.6-4.6-7.2-10.8-7.2-17.2s2.6-12.8 7.2-17.4c4.4-4.8 10.8-7.2 17.2-7.2z" />
<glyph unicode="&#xe950;" glyph-name="money-(2)" d="M511.641 662.701c-5.022 0-8.997-3.976-8.997-8.997v0 0c0-5.022 3.976-8.997 8.997-8.997s8.997 3.976 8.997 8.997v0 0c0 5.022-3.976 8.997-8.997 8.997zM520.639 627.13c0-4.969-4.028-8.997-8.997-8.997s-8.997 4.028-8.997 8.997c0 4.969 4.028 8.997 8.997 8.997s8.997-4.028 8.997-8.997zM520.639 600.765c0-4.969-4.028-8.997-8.997-8.997s-8.997 4.028-8.997 8.997c0 4.969 4.028 8.997 8.997 8.997s8.997-4.028 8.997-8.997zM511.641 724.009c5.022 0 8.997 3.976 8.997 8.997s-3.976 8.997-8.997 8.997c-5.022 0-8.997-3.976-8.997-8.997s3.976-8.997 8.997-8.997zM520.639 706.642c0-4.969-4.028-8.997-8.997-8.997s-8.997 4.028-8.997 8.997c0 4.969 4.028 8.997 8.997 8.997s8.997-4.028 8.997-8.997zM520.639 680.068c0-4.969-4.028-8.997-8.997-8.997s-8.997 4.028-8.997 8.997c0 4.969 4.028 8.997 8.997 8.997s8.997-4.028 8.997-8.997zM520.639 189.393c0-4.969-4.028-8.997-8.997-8.997s-8.997 4.028-8.997 8.997c0 4.969 4.028 8.997 8.997 8.997s8.997-4.028 8.997-8.997zM520.639 163.029c0-4.969-4.028-8.997-8.997-8.997s-8.997 4.028-8.997 8.997c0 4.969 4.028 8.997 8.997 8.997s8.997-4.028 8.997-8.997zM511.641 286.273c5.022 0 8.997 3.976 8.997 8.997s-3.976 8.997-8.997 8.997c-5.022 0-8.997-3.976-8.997-8.997-0.209-5.022 3.976-8.997 8.997-8.997zM520.639 268.906c0-4.969-4.028-8.997-8.997-8.997s-8.997 4.028-8.997 8.997c0 4.969 4.028 8.997 8.997 8.997s8.997-4.028 8.997-8.997zM520.639 242.332c0-4.969-4.028-8.997-8.997-8.997s-8.997 4.028-8.997 8.997c0 4.969 4.028 8.997 8.997 8.997s8.997-4.028 8.997-8.997zM511.641 206.761c5.022 0 8.997 3.976 8.997 8.997v0 0c0 5.022-3.976 8.997-8.997 8.997s-8.997-3.976-8.997-8.997v0 0c-0.209-4.813 3.976-8.997 8.997-8.997zM717.955 342.559v0 0c-4.394 2.302-9.834 0.418-12.136-3.976s-0.418-9.834 3.976-12.136v0 0c3.976-1.883 8.579-0.837 11.299 2.511 0.418 0.418 0.628 1.046 1.046 1.465 0.209 0.628 0.418 1.046 0.628 1.674 1.046 3.976-0.837 8.579-4.813 10.462zM746.412 322.472c0-4.969-4.028-8.997-8.997-8.997s-8.997 4.028-8.997 8.997c0 4.969 4.028 8.997 8.997 8.997s8.997-4.028 8.997-8.997zM770.056 310.545c0-4.969-4.028-8.997-8.997-8.997s-8.997 4.028-8.997 8.997c0 4.969 4.028 8.997 8.997 8.997s8.997-4.028 8.997-8.997zM647.231 378.549c-4.394 2.302-9.834 0.418-12.136-3.976s-0.418-9.834 3.976-12.136c4.394-2.302 9.834-0.418 12.136 3.976s0.418 9.834-3.976 12.136zM675.688 358.462c0-4.969-4.028-8.997-8.997-8.997s-8.997 4.028-8.997 8.997c0 4.969 4.028 8.997 8.997 8.997s8.997-4.028 8.997-8.997zM699.332 346.535c0-4.969-4.028-8.997-8.997-8.997s-8.997 4.028-8.997 8.997c0 4.969 4.028 8.997 8.997 8.997s8.997-4.028 8.997-8.997zM294.656 322.472c0-4.969-4.028-8.997-8.997-8.997s-8.997 4.028-8.997 8.997c0 4.969 4.028 8.997 8.997 8.997s8.997-4.028 8.997-8.997zM271.012 310.545c0-4.969-4.028-8.997-8.997-8.997s-8.997 4.028-8.997 8.997c0 4.969 4.028 8.997 8.997 8.997s8.997-4.028 8.997-8.997zM375.842 378.549c-4.394-2.302-6.277-7.742-3.976-12.136s7.742-6.277 12.136-3.976 6.277 7.742 3.976 12.136c-2.092 4.603-7.533 6.277-12.136 3.976zM365.38 358.462c0-4.969-4.028-8.997-8.997-8.997s-8.997 4.028-8.997 8.997c0 4.969 4.028 8.997 8.997 8.997s8.997-4.028 8.997-8.997zM341.736 346.535c0-4.969-4.028-8.997-8.997-8.997s-8.997 4.028-8.997 8.997c0 4.969 4.028 8.997 8.997 8.997s8.997-4.028 8.997-8.997zM305.118 342.559v0 0c-4.394-2.302-6.277-7.742-3.976-12.136s7.742-6.277 12.136-3.976v0 0c4.394 2.302 6.277 7.742 3.976 12.136s-7.742 6.277-12.136 3.976zM294.656 573.354c0-4.969-4.028-8.997-8.997-8.997s-8.997 4.028-8.997 8.997c0 4.969 4.028 8.997 8.997 8.997s8.997-4.028 8.997-8.997zM271.012 585.281c0-4.969-4.028-8.997-8.997-8.997s-8.997 4.028-8.997 8.997c0 4.969 4.028 8.997 8.997 8.997s8.997-4.028 8.997-8.997zM384.212 533.389c-4.394 2.302-9.834 0.418-12.136-3.976s-0.418-9.834 3.976-12.136c4.394-2.302 9.834-0.418 12.136 3.976s0.418 9.834-3.976 12.136zM365.38 537.365c0-4.969-4.028-8.997-8.997-8.997s-8.997 4.028-8.997 8.997c0 4.969 4.028 8.997 8.997 8.997s8.997-4.028 8.997-8.997zM341.945 549.291c0-4.969-4.028-8.997-8.997-8.997s-8.997 4.028-8.997 8.997c0 4.969 4.028 8.997 8.997 8.997s8.997-4.028 8.997-8.997zM313.488 569.379v0 0c-3.976 2.092-8.579 0.837-11.299-2.511-0.418-0.418-0.628-1.046-1.046-1.465-0.209-0.628-0.418-1.046-0.628-1.674-1.046-3.976 0.628-8.579 4.603-10.462v0 0c4.394-2.302 9.834-0.418 12.136 3.976s0.628 9.834-3.766 12.136zM709.794 569.379v0 0c-4.394-2.302-6.277-7.742-3.976-12.136s7.742-6.277 12.136-3.976v0 0c4.394 2.302 6.277 7.742 3.976 12.136-2.092 4.603-7.533 6.277-12.136 3.976zM746.621 573.354c0-4.969-4.028-8.997-8.997-8.997s-8.997 4.028-8.997 8.997c0 4.969 4.028 8.997 8.997 8.997s8.997-4.028 8.997-8.997zM770.056 585.281c0-4.969-4.028-8.997-8.997-8.997s-8.997 4.028-8.997 8.997c0 4.969 4.028 8.997 8.997 8.997s8.997-4.028 8.997-8.997zM639.070 533.389c-4.394-2.302-6.277-7.742-3.976-12.136s7.742-6.277 12.136-3.976c4.394 2.302 6.277 7.742 3.976 12.136s-7.742 6.277-12.136 3.976zM675.688 537.365c0-4.969-4.028-8.997-8.997-8.997s-8.997 4.028-8.997 8.997c0 4.969 4.028 8.997 8.997 8.997s8.997-4.028 8.997-8.997zM699.332 549.291c0-4.969-4.028-8.997-8.997-8.997s-8.997 4.028-8.997 8.997c0 4.969 4.028 8.997 8.997 8.997s8.997-4.028 8.997-8.997zM824.669 322.472c2.72-9.625 5.231-12.136 7.114-12.345 1.674-11.299 10.462-25.737 24.9-30.968 5.859-2.092 12.345-2.092 18.204 0 14.229 5.022 23.226 19.46 24.9 30.968 1.883 0.209 4.394 2.929 7.114 12.345 3.766 13.182-0.209 15.066-3.557 14.647 0.628 1.883 1.046 3.557 1.465 5.44 5.65 33.897-11.090 34.944-11.090 34.944s-2.72 5.231-10.044 9.416c-4.813 2.929-11.718 5.231-20.715 4.394-2.929-0.209-5.65-0.628-8.16-1.465v0c-3.348-1.046-6.277-2.72-8.997-4.603-3.348-2.092-6.487-4.813-9.207-7.742-4.394-4.603-8.37-10.253-10.044-17.576-1.465-5.44-1.046-11.090 0-17.158v0c0.418-1.883 0.837-3.557 1.465-5.44-3.139 0.209-7.114-1.674-3.348-14.856zM931.801 265.767c-20.297 5.231-36.827 16.739-36.827 16.739l-12.764-40.593-2.511-7.742v0.209l-2.092-6.487-6.696 19.25c16.739 23.226-3.348 23.017-4.394 23.017s-21.134 0.209-4.394-23.017l-6.696-19.25-2.092 6.487v-0.209l-2.511 7.742-12.764 40.593c0 0-16.53-11.508-36.827-16.739-15.066-3.766-15.902-21.343-15.275-29.922 0 0 0.837-11.718 1.674-16.949 0 0 29.503-19.25 79.094-19.25 49.381 0 79.094 19.25 79.094 19.25 0.837 5.231 1.674 16.949 1.674 16.949 0.209 8.579-0.628 25.946-15.693 29.922zM831.783 614.994c1.674-11.299 10.462-25.737 24.9-30.968 5.859-2.092 12.345-2.092 18.204 0 14.229 5.022 23.226 19.46 24.9 30.968 1.883 0.209 4.394 2.929 7.114 12.345 3.766 13.182-0.209 15.066-3.557 14.647 0.628 1.883 1.046 3.557 1.465 5.44 5.65 33.897-11.090 34.944-11.090 34.944s-2.72 5.231-10.044 9.416c-4.813 2.929-11.718 5.231-20.715 4.394-2.929-0.209-5.65-0.628-8.16-1.465v0c-3.348-1.046-6.277-2.72-8.997-4.603-3.348-2.092-6.487-4.813-9.207-7.742-4.394-4.603-8.37-10.253-10.044-17.576-1.465-5.44-1.046-11.090 0-17.158v0c0.418-1.883 0.837-3.557 1.465-5.44-3.348 0.209-7.324-1.674-3.557-14.647 2.929-9.625 5.44-12.345 7.324-12.555zM787.214 523.764c0 0 29.503-19.25 79.094-19.25 49.381 0 79.094 19.25 79.094 19.25 0.837 5.231 1.674 16.949 1.674 16.949 0.628 8.579-0.209 26.155-15.275 29.922-20.297 5.231-36.827 16.739-36.827 16.739l-12.764-40.593-2.511-7.742v0.209l-2.092-6.487-6.696 19.25c16.739 23.226-3.348 23.017-4.394 23.017s-21.134 0.209-4.394-23.017l-6.696-19.25-2.092 6.487v-0.209l-2.511 7.742-12.764 40.593c0 0-16.53-11.508-36.827-16.739-15.066-3.766-15.902-21.343-15.275-29.922-0.418-0.209 0.418-11.927 1.255-16.949zM115.335 322.472c2.72-9.625 5.231-12.136 7.114-12.345 1.674-11.299 10.462-25.737 24.9-30.968 5.859-2.092 12.345-2.092 18.204 0 14.229 5.022 23.226 19.46 24.9 30.968 1.883 0.209 4.394 2.929 7.114 12.345 3.766 13.182-0.209 15.066-3.557 14.647 0.628 1.883 1.046 3.557 1.465 5.44 5.65 33.897-11.090 34.944-11.090 34.944s-2.72 5.231-10.044 9.416c-4.813 2.929-11.718 5.231-20.715 4.394-2.929-0.209-5.65-0.628-8.16-1.465v0c-3.348-1.046-6.277-2.72-8.997-4.603-3.348-2.092-6.487-4.813-9.207-7.742-4.394-4.603-8.37-10.253-10.044-17.576-1.465-5.44-1.046-11.090 0-17.158v0c0.418-1.883 0.837-3.557 1.465-5.44-3.139 0.209-7.114-1.674-3.348-14.856zM222.467 265.767c-20.297 5.231-36.827 16.739-36.827 16.739l-12.764-40.593-2.511-7.742v0.209l-2.092-6.487-6.696 19.25c16.739 23.226-3.348 23.017-4.394 23.017s-21.134 0.209-4.394-23.017l-6.696-19.25-2.092 6.487v-0.209l-2.511 7.742-12.764 40.593c0 0-16.53-11.508-36.827-16.739-15.066-3.766-15.902-21.343-15.275-29.922 0 0 0.837-11.718 1.674-16.949 0 0 29.503-19.25 79.094-19.25 49.381 0 79.094 19.25 79.094 19.25 0.837 5.231 1.674 16.949 1.674 16.949 0.209 8.579-0.628 25.946-15.693 29.922zM122.449 614.994c1.674-11.299 10.462-25.737 24.9-30.968 5.859-2.092 12.345-2.092 18.204 0 14.229 5.022 23.226 19.46 24.9 30.968 1.883 0.209 4.394 2.929 7.114 12.345 3.766 13.182-0.209 15.066-3.557 14.647 0.628 1.883 1.046 3.557 1.465 5.44 5.65 33.897-11.090 34.944-11.090 34.944s-2.72 5.231-10.044 9.416c-4.813 2.929-11.718 5.231-20.715 4.394-2.929-0.209-5.65-0.628-8.16-1.465v0c-3.348-1.046-6.277-2.72-8.997-4.603-3.348-2.092-6.487-4.813-9.207-7.742-4.394-4.603-8.37-10.253-10.044-17.576-1.465-5.44-1.046-11.090 0-17.158v0c0.418-1.883 0.837-3.557 1.465-5.44-3.348 0.209-7.324-1.674-3.557-14.647 2.929-9.625 5.44-12.345 7.324-12.555zM222.467 570.634c-20.297 5.231-36.827 16.739-36.827 16.739l-12.764-40.593-2.511-7.742v0.209l-2.092-6.487-6.696 19.25c16.739 23.226-3.348 23.017-4.394 23.017s-21.134 0.209-4.394-23.017l-6.696-19.25-2.092 6.487v-0.209l-2.511 7.742-12.764 40.593c0 0-16.53-11.508-36.827-16.739-15.066-3.766-15.902-21.343-15.275-29.922 0 0 0.837-11.718 1.674-16.949 0 0 29.503-19.25 79.094-19.25 49.381 0 79.094 19.25 79.094 19.25 0.837 5.231 1.674 16.949 1.674 16.949 0.209 8.579-0.628 25.946-15.693 29.922zM469.583 58.826c2.72-9.625 5.231-12.136 7.114-12.345 1.674-11.299 10.462-25.737 24.9-30.968 5.859-2.092 12.345-2.092 18.204 0 14.229 5.022 23.226 19.46 24.9 30.968 1.883 0.209 4.394 2.929 7.114 12.345 3.766 13.182-0.209 15.066-3.557 14.647 0.628 1.883 1.046 3.557 1.465 5.44 5.65 33.897-11.090 34.944-11.090 34.944s-2.72 5.231-10.044 9.416c-4.813 2.929-11.718 5.231-20.715 4.394-2.929-0.209-5.65-0.628-8.16-1.465v0c-3.348-1.046-6.277-2.72-8.997-4.603-3.348-2.092-6.487-4.813-9.207-7.742-4.394-4.603-8.37-10.253-10.044-17.576-1.465-5.44-1.046-11.090 0-17.158v0c0.418-1.883 0.837-3.557 1.465-5.44-3.139 0.209-7.114-1.674-3.348-14.856zM576.925 2.121c-20.297 5.231-36.827 16.739-36.827 16.739l-12.764-40.593-2.511-7.742v0.209l-2.092-6.487-6.696 19.25c16.739 23.226-3.348 23.017-4.394 23.017s-21.134 0.209-4.394-23.017l-6.696-19.25-2.092 6.487v-0.209l-2.511 7.742-12.764 40.593c0 0-16.53-11.508-36.827-16.739-15.066-3.766-15.902-21.343-15.275-29.922 0 0 0.837-11.718 1.674-16.949 0 0 29.503-19.25 79.094-19.25 49.381 0 79.094 19.25 79.094 19.25 0.837 5.231 1.674 16.949 1.674 16.949 0 8.579-0.628 25.946-15.693 29.922zM476.698 878.64c1.674-11.299 10.462-25.737 24.9-30.968 5.859-2.092 12.345-2.092 18.204 0 14.229 5.022 23.226 19.46 24.9 30.968 1.883 0.209 4.394 2.929 7.114 12.345 3.766 13.182-0.209 15.066-3.557 14.647 0.628 1.883 1.046 3.557 1.465 5.44 5.65 33.897-11.090 34.944-11.090 34.944s-2.72 5.231-10.044 9.416c-4.813 2.929-11.718 5.231-20.715 4.394-2.929-0.209-5.65-0.628-8.16-1.465v0c-3.348-1.046-6.277-2.72-8.997-4.603-3.348-2.092-6.487-4.813-9.207-7.742-4.394-4.603-8.37-10.253-10.044-17.576-1.465-5.44-1.046-11.090 0-17.158v0c0.418-1.883 0.837-3.557 1.465-5.44-3.348 0.209-7.324-1.674-3.557-14.647 2.929-9.625 5.44-12.345 7.324-12.555zM432.338 787.41c0 0 29.503-19.25 79.094-19.25 49.381 0 79.094 19.25 79.094 19.25 0.837 5.231 1.674 16.949 1.674 16.949 0.628 8.579-0.209 26.155-15.275 29.922-20.297 5.231-36.827 16.739-36.827 16.739l-12.764-40.593-2.511-7.742v0.209l-2.092-6.487-6.696 19.25c16.739 23.226-3.348 23.017-4.394 23.017s-21.134 0.209-4.394-23.017l-6.696-19.25-2.092 6.487v-0.209l-2.511 7.742-12.764 40.593c0 0-16.53-11.508-36.827-16.739-15.066-3.766-15.902-21.343-15.275-29.922-0.418-0.209 0.418-11.927 1.255-16.949zM508.712 548.036c-55.24 0-100.018-44.778-100.018-100.018s44.778-100.018 100.018-100.018 100.018 44.778 100.018 100.018-44.778 100.018-100.018 100.018zM537.378 408.471c-4.394-5.231-10.044-8.788-16.739-10.671-2.929-0.837-4.185-2.302-3.976-5.231s0-5.859 0-8.788c0-2.72-1.255-3.976-3.976-4.185-3.139 0-6.277 0-9.625 0-2.72 0-4.185 1.674-4.185 4.394 0 2.092 0 4.394 0 6.487 0 4.813-0.209 5.022-4.813 5.65-5.859 0.837-11.718 2.302-16.949 4.813-4.185 2.092-4.603 3.139-3.348 7.533 0.837 3.348 1.883 6.487 2.929 9.834 1.255 3.766 2.302 4.185 5.65 2.511 5.859-3.139 12.345-4.813 18.832-5.65 4.185-0.628 8.37 0 12.345 1.674 7.324 3.139 8.579 11.718 2.302 16.949-2.092 1.674-4.603 2.929-7.114 4.185-6.487 2.929-13.182 5.022-19.25 8.579-9.834 5.859-16.112 14.019-15.484 26.155 0.837 13.601 8.579 22.18 20.924 26.574 5.231 1.883 5.231 1.883 5.231 7.114 0 1.883 0 3.557 0 5.44 0.209 3.976 0.837 4.813 4.813 4.813 1.255 0 2.511 0 3.766 0 8.579 0 8.579 0 8.579-8.579 0-6.068 0-6.068 6.068-7.114 4.603-0.628 8.997-2.092 13.392-3.976 2.302-1.046 3.348-2.72 2.511-5.231-1.046-3.766-2.092-7.533-3.348-11.090-1.046-3.557-2.302-3.976-5.65-2.302-6.696 3.348-13.81 4.603-21.134 4.185-1.883-0.209-3.766-0.418-5.65-1.255-6.487-2.72-7.533-9.834-2.092-14.229 2.72-2.302 5.859-3.766 9.207-5.231 5.65-2.302 11.299-4.603 16.739-7.533 17.576-9.416 22.18-30.968 10.044-45.824z" />
<glyph unicode="&#xe951;" glyph-name="bell" d="M1025.5 160c0 288-256 224-256 448 0 18.56-1.788 34.42-5.048 47.928-16.83 113.018-92.156 203.72-189.772 231.36 0.866 3.948 1.32 8.032 1.32 12.21 0 33.278-28.8 60.502-64 60.502s-64-27.224-64-60.5c0-4.18 0.456-8.264 1.32-12.21-109.47-30.998-190.914-141.298-193.254-273.442-0.040-1.92-0.066-3.864-0.066-5.846 0-224.002-256-160.002-256-448.002 0-76.226 170.59-139.996 398.97-156.080 21.524-40.404 64.056-67.92 113.030-67.92s91.508 27.516 113.030 67.92c228.38 16.084 398.97 79.854 398.97 156.080 0 0.228-0.026 0.456-0.028 0.682l1.528-0.682zM826.246 105.904c-54.23-14.47-118.158-24.876-186.768-30.648-5.704 65.418-60.582 116.744-127.478 116.744s-121.774-51.326-127.478-116.744c-68.608 5.772-132.538 16.178-186.768 30.648-74.63 19.914-110.31 42.19-123.368 54.096 13.058 11.906 48.738 34.182 123.368 54.096 86.772 23.152 198.372 35.904 314.246 35.904s227.474-12.752 314.246-35.904c74.63-19.914 110.31-42.19 123.368-54.096-13.058-11.906-48.738-34.182-123.368-54.096z" />
</font>
</defs>
</svg>
